<?xml version="1.0" encoding="utf-8"?>
<!-- Generator: Adobe Illustrator 22.0.1, SVG Export Plug-In . SVG Version: 6.00 Build 0)  -->
<svg xmlns="http://www.w3.org/2000/svg" xmlns:xlink="http://www.w3.org/1999/xlink" version="1.1" id="Слой_1" x="0px" y="0px" viewBox="0 0 80 80" style="enable-background:new 0 0 80 80" xml:space="preserve" fill="#191b1e">
<path style="fill:none;stroke:#191b1e;stroke-width:2.0372;stroke-linecap:round;stroke-linejoin:round;stroke-miterlimit:10" d="  M47,58c12.793-6.417,14-15.25,14-26c2.104,1.386,4.5,2,6.5,2c3.25,0,6.5-0.25,6.5-5c0-10-7.5-12-13-12C57.551,10.385,49.25,6,42,6  c-8.868,0-11,2-11,4c0,3,4.25,4,8,4c5.25,0,12.5-4,19,4c-3.482,2.696-3.25,7-7,7c-4.75,0-5.954-3-14-3c-8.607,0-17,6.176-17,16  c-0.541-1.856-2.68-3-5-3c-3.358,0-5.049,2.097-5.049,5.049C9.951,41.922,11.75,45,15,45c2,0,3.5-0.5,5-2  c1.721,4.178,6.385,5.52,8.692,5.52S35,49.344,35,52c0,2.25-3,2.879-3,5c0,3.701,3.715,4,7,4c7.25,0,8.638,3.549,11,7  c1.465,2.142,3.25,4,5,4c1.25,0,3-0.785,3-2c0-11.02-15.047-12.97-15-13c2.098-1.32,7-5.607,7-13c0-4.478-2.373-7.908-6-10" fill="#191b1e"/>
<path style="fill:none;stroke:#191b1e;stroke-width:2;stroke-linecap:round;stroke-linejoin:round;stroke-miterlimit:10" d="  M18.069,21h4.681" fill="#191b1e"/>
<path style="fill:none;stroke:#191b1e;stroke-width:2;stroke-linecap:round;stroke-linejoin:round;stroke-miterlimit:10;stroke-dasharray:0,4" d="  M10.629,21h6.69" fill="#191b1e"/>
<path style="fill:none;stroke:#191b1e;stroke-width:2;stroke-linecap:round;stroke-linejoin:round;stroke-miterlimit:10;stroke-dasharray:0,4" d="  M21.25,16h-9.38" fill="#191b1e"/>
<path style="fill:none;stroke:#191b1e;stroke-width:2;stroke-linecap:round;stroke-linejoin:round;stroke-miterlimit:10" d="  M28.5,16h-7.25" fill="#191b1e"/>
<path style="fill:none;stroke:#191b1e;stroke-width:2;stroke-linecap:round;stroke-linejoin:round;stroke-miterlimit:10" d="M15,27  h3.486" fill="#191b1e"/>
<path style="fill:none;stroke:#191b1e;stroke-width:2;stroke-linecap:round;stroke-linejoin:round;stroke-miterlimit:10;stroke-dasharray:0,4" d="  M7.25,27h6" fill="#191b1e"/>
<circle cx="68.962" cy="26.485" r="2.119" fill="#191b1e"/>
<path style="fill:none;stroke:#191b1e;stroke-width:2;stroke-linecap:round;stroke-linejoin:round;stroke-miterlimit:10;stroke-dasharray:0,4" d="  M32.25,34.25c2-1.5,8-2.5,11.25-0.5" fill="#191b1e"/>
</svg>
