<svg viewBox="0 0 80 80" xmlns="http://www.w3.org/2000/svg"><path d="m22 27a1 1 0 1 0 0 2 1 1 0 1 0 0-2zm0-12a1 1 0 1 0 0 2 1 1 0 1 0 0-2zm32 2a1 1 0 1 0 0 2 1 1 0 1 0 0-2zm0 4a1 1 0 1 0 0 2 1 1 0 1 0 0-2zm8 0a1 1 0 1 0 0 2 1 1 0 1 0 0-2zm-4-4a1 1 0 1 0 0 2 1 1 0 1 0 0-2zm4 0a1 1 0 1 0 0 2 1 1 0 1 0 0-2zm-8 8a1 1 0 1 0 0 2 1 1 0 1 0 0-2zm4 0a1 1 0 1 0 0 2 1 1 0 1 0 0-2zm4 0a1 1 0 1 0 0 2 1 1 0 1 0 0-2zm-46-4a1 1 0 1 0 0 2 1 1 0 1 0 0-2zm12 0a1 1 0 1 0 0 2 1 1 0 1 0 0-2zm-10.243 4.243a1 1 0 1 0 0 2 1 1 0 1 0 0-2zm8.485-8.485a1 1 0 1 0 0 2 1 1 0 1 0 0-2zm-8.485 0a1 1 0 1 0 0 2 1 1 0 1 0 0-2zm8.485 8.485a1 1 0 1 0 0 2 1 1 0 1 0 0-2zm-4.242 37.757a1 1 0 1 0 0 2 1 1 0 1 0 0-2zm0-8a1 1 0 1 0 0 2 1 1 0 1 0 0-2zm4 8a1 1 0 1 0 0 2 1 1 0 1 0 0-2zm-6-4a1 1 0 1 0 0 2 1 1 0 1 0 0-2zm-2 4a1 1 0 1 0 0 2 1 1 0 1 0 0-2zm6-4a1 1 0 1 0 0 2 1 1 0 1 0 0-2z"/><path d="m49 13h18v18h-18z" fill="none" stroke="#000" stroke-miterlimit="10" stroke-width="2"/><path d="m52 57a1 1 0 1 0 0 2 1 1 0 1 0 0-2zm3.172 2.828a1 1 0 1 0 0 2 1 1 0 1 0 0-2zm5.828-5.828a1 1 0 1 0 0 2 1 1 0 1 0 0-2zm-6 0a1 1 0 1 0 0 2 1 1 0 1 0 0-2zm3-3a1 1 0 1 0 0 2 1 1 0 1 0 0-2zm0 12a1 1 0 1 0 0 2 1 1 0 1 0 0-2zm3-3a1 1 0 1 0 0 2 1 1 0 1 0 0-2zm3-3a1 1 0 1 0 0 2 1 1 0 1 0 0-2z"/><g fill="none" stroke="#000" stroke-miterlimit="10" stroke-width="2"><path d="m49 49h18v18h-18z" transform="matrix(.70709444 -.70711912 .70711912 .70709444 -24.025094 58.001725)"/><path d="m22 11a11 11 0 1 0 0 22 11 11 0 1 0 0-22zm0 36 12 22h-24z"/></g></svg>