<?xml version="1.0" encoding="UTF-8"?>
<svg width="75px" height="75px" viewBox="0 0 59 59" version="1.1" xmlns="http://www.w3.org/2000/svg" xmlns:xlink="http://www.w3.org/1999/xlink">
    <!-- Generator: Sketch 55.1 (78136) - https://sketchapp.com -->
    <title>memory</title>
    <desc>Created with Sketch.</desc>
    <g id="Page-1" stroke="none" stroke-width="1" fill="none" fill-rule="evenodd">
        <g id="memory" transform="translate(30.000000, 30.000000) rotate(-315.000000) translate(-30.000000, -30.000000) translate(12.000000, 5.000000)" fill="#191B1E" fill-rule="nonzero">
            <path d="M2,0 C0.90625,0 0,0.90625 0,2 L0,48 C0,49.09375 0.90625,50 2,50 L28,50 C28.550781,50 29,49.550781 29,49 L29,48 L34,48 C35.09375,48 36,47.09375 36,46 L36,27 C36,26.449219 35.550781,26 35,26 L33,26 C32.4375,26 32,25.5625 32,25 C32,24.4375 32.4375,24 33,24 L35,24 C35.550781,24 36,23.550781 36,23 L36,4 C36,2.90625 35.09375,2 34,2 L29,2 L29,1 C29,0.449219 28.550781,0 28,0 L2,0 Z M2,2 L27,2 L27,48 L2,48 L2,2 Z M7.8125,4 C7.335938,4.089844 6.992188,4.511719 6.99986951,5 L6.99986951,12 C6.99986951,12.550781 7.449219,13 8,13 L21,13 C21.550781,13 22,12.550781 22,12 L22,5 C22,4.449219 21.550781,4 21,4 L8,4 C7.96875,4 7.9375,4 7.90625,4 C7.875,4 7.84375,4 7.8125,4 Z M29,4 L34,4 L34,22 L33,22 C31.355469,22 30,23.355469 30,25 C30,26.644531 31.355469,28 33,28 L34,28 L34,46 L29,46 L29,44 L32,44 L32,42 L29,42 L29,40 L32,40 L32,38 L29,38 L29,36 L32,36 L32,34 L29,34 L29,32 L32,32 L32,30 L29,30 L29,20 L32,20 L32,18 L29,18 L29,16 L32,16 L32,14 L29,14 L29,12 L32,12 L32,10 L29,10 L29,8 L32,8 L32,6 L29,6 L29,4 Z M9,6 L20,6 L20,11 L9,11 L9,6 Z M7.8125,15 C7.335938,15.089844 6.992188,15.511719 6.99986951,16 L6.99986951,23 C6.99986951,23.550781 7.449219,24 8,24 L21,24 C21.550781,24 22,23.550781 22,23 L22,16 C22,15.449219 21.550781,15 21,15 L8,15 C7.96875,15 7.9375,15 7.90625,15 C7.875,15 7.84375,15 7.8125,15 Z M9,17 L20,17 L20,22 L9,22 L9,17 Z M7.8125,26 C7.335938,26.089844 6.992188,26.511719 6.99986951,27 L6.99986951,34 C6.99986951,34.550781 7.449219,35 8,35 L21,35 C21.550781,35 22,34.550781 22,34 L22,27 C22,26.449219 21.550781,26 21,26 L8,26 C7.96875,26 7.9375,26 7.90625,26 C7.875,26 7.84375,26 7.8125,26 Z M9,28 L20,28 L20,33 L9,33 L9,28 Z M7.8125,37 C7.335938,37.089844 6.992188,37.511719 6.99986951,38 L6.99986951,45 C6.99986951,45.550781 7.449219,46 8,46 L21,46 C21.550781,46 22,45.550781 22,45 L22,38 C22,37.449219 21.550781,37 21,37 L8,37 C7.96875,37 7.9375,37 7.90625,37 C7.875,37 7.84375,37 7.8125,37 Z M9,39 L20,39 L20,44 L9,44 L9,39 Z" id="Shape"></path>
        </g>
    </g>
</svg>