<?xml version="1.0" encoding="utf-8"?>
<!-- Generator: Adobe Illustrator 21.0.2, SVG Export Plug-In . SVG Version: 6.00 Build 0)  -->
<svg xmlns="http://www.w3.org/2000/svg" xmlns:xlink="http://www.w3.org/1999/xlink" version="1.1" id="Layer_1" x="0px" y="0px" viewBox="0 0 80 80" style="enable-background:new 0 0 80 80" xml:space="preserve" fill="#191b1e">
<line style="fill:none;stroke:#191b1e;stroke-width:2;stroke-linejoin:round;stroke-miterlimit:10" x1="10" y1="40" x2="51" y2="40" fill="#191b1e"/>
<circle cx="61" cy="40" r="1" fill="#191b1e"/>
<circle cx="65" cy="40" r="1" fill="#191b1e"/>
<circle cx="69" cy="40" r="1" fill="#191b1e"/>
<path style="fill:none;stroke:#191b1e;stroke-width:2;stroke-miterlimit:10" d="M55,45h-2c-1.105,0-2-0.895-2-2v-6  c0-1.105,0.895-2,2-2h2c1.105,0,2,0.895,2,2v6C57,44.105,56.105,45,55,45z" fill="#191b1e"/>
<line style="fill:none;stroke:#191b1e;stroke-width:2;stroke-linejoin:round;stroke-miterlimit:10" x1="10" y1="18" x2="31" y2="18" fill="#191b1e"/>
<circle cx="41" cy="18" r="1" fill="#191b1e"/>
<circle cx="45" cy="18" r="1" fill="#191b1e"/>
<circle cx="49" cy="18" r="1" fill="#191b1e"/>
<circle cx="53" cy="18" r="1" fill="#191b1e"/>
<circle cx="57" cy="18" r="1" fill="#191b1e"/>
<circle cx="61" cy="18" r="1" fill="#191b1e"/>
<circle cx="65" cy="18" r="1" fill="#191b1e"/>
<circle cx="69" cy="18" r="1" fill="#191b1e"/>
<path style="fill:none;stroke:#191b1e;stroke-width:2;stroke-miterlimit:10" d="M35,23h-2c-1.105,0-2-0.895-2-2v-6  c0-1.105,0.895-2,2-2h2c1.105,0,2,0.895,2,2v6C37,22.105,36.105,23,35,23z" fill="#191b1e"/>
<line style="fill:none;stroke:#191b1e;stroke-width:2;stroke-linejoin:round;stroke-miterlimit:10" x1="10" y1="62" x2="23" y2="62" fill="#191b1e"/>
<circle cx="41" cy="62" r="1" fill="#191b1e"/>
<circle cx="45" cy="62" r="1" fill="#191b1e"/>
<circle cx="33" cy="62" r="1" fill="#191b1e"/>
<circle cx="37" cy="62" r="1" fill="#191b1e"/>
<circle cx="49" cy="62" r="1" fill="#191b1e"/>
<circle cx="53" cy="62" r="1" fill="#191b1e"/>
<circle cx="57" cy="62" r="1" fill="#191b1e"/>
<circle cx="61" cy="62" r="1" fill="#191b1e"/>
<circle cx="65" cy="62" r="1" fill="#191b1e"/>
<circle cx="69" cy="62" r="1" fill="#191b1e"/>
<path style="fill:none;stroke:#191b1e;stroke-width:2;stroke-miterlimit:10" d="M27,67h-2c-1.105,0-2-0.895-2-2v-6  c0-1.105,0.895-2,2-2h2c1.105,0,2,0.895,2,2v6C29,66.105,28.105,67,27,67z" fill="#191b1e"/>
</svg>
