<?xml version="1.0" encoding="utf-8"?>
<svg xmlns="http://www.w3.org/2000/svg" viewBox="0 0 100 100" fill="#191b1e"><path style="line-height:normal;text-indent:0;text-align:start;text-decoration-line:none;text-decoration-style:solid;text-decoration-color:#000;text-transform:none;block-progression:tb;isolation:auto;mix-blend-mode:normal" d="M 55.990234 11.005859 C 55.695944 10.997213 55.400503 11.009646 55.105469 11.042969 C 54.318712 11.131829 53.537333 11.372584 52.804688 11.775391 L 52.046875 12.191406 C 50.769422 12.895342 49.222768 12.895342 47.945312 12.191406 L 47.189453 11.777344 C 44.258787 10.16607 40.553502 11.157474 38.822266 14.019531 L 38.373047 14.757812 C 37.615433 16.007796 36.278225 16.781705 34.820312 16.8125 L 33.955078 16.832031 C 30.611105 16.900701 27.897695 19.613704 27.830078 22.958984 L 27.810547 23.822266 C 27.780557 25.281835 27.005736 26.621873 25.757812 27.375 L 25.017578 27.824219 C 22.15676 29.55661 21.163963 33.262411 22.775391 36.193359 L 23.191406 36.951172 C 23.895342 38.228625 23.895342 39.775281 23.191406 41.052734 L 22.775391 41.808594 C 21.164262 44.738997 22.1554 48.445493 25.019531 50.177734 L 25.757812 50.626953 C 27.007794 51.384567 27.779752 52.721775 27.810547 54.179688 L 27.830078 55.044922 C 27.871503 57.062335 28.879733 58.845113 30.404297 59.960938 L 22.066406 81.640625 A 1.0001 1.0001 0 0 0 23.205078 82.978516 L 32.052734 81.115234 L 37.175781 88.566406 A 1.0001 1.0001 0 0 0 38.933594 88.359375 L 47.513672 66.048828 L 47.949219 65.808594 C 49.226672 65.104658 50.775281 65.104658 52.052734 65.808594 L 52.486328 66.046875 L 61.066406 88.359375 A 1.0001 1.0001 0 0 0 62.824219 88.566406 L 67.947266 81.115234 L 76.794922 82.978516 A 1.0001 1.0001 0 0 0 77.933594 81.640625 L 69.595703 59.962891 C 71.121699 58.847326 72.130428 57.06407 72.171875 55.044922 L 72.171875 55.042969 L 72.191406 54.179688 C 72.221396 52.720118 72.994264 51.38008 74.242188 50.626953 L 74.244141 50.626953 L 74.982422 50.177734 C 77.84324 48.445343 78.837992 44.739542 77.226562 41.808594 L 77.224609 41.804688 L 76.802734 41.048828 C 76.100926 39.772119 76.101414 38.225384 76.804688 36.949219 L 77.220703 36.193359 C 78.831591 33.263394 77.841659 29.554839 74.978516 27.822266 L 74.976562 27.822266 L 74.240234 27.375 C 72.990253 26.617387 72.216342 25.278225 72.185547 23.820312 L 72.166016 22.957031 L 72.166016 22.955078 C 72.097366 19.611762 69.384948 16.899904 66.041016 16.830078 L 66.039062 16.830078 L 65.175781 16.810547 C 63.716212 16.780557 62.376174 16.007689 61.623047 14.759766 L 61.623047 14.757812 L 61.173828 14.019531 C 60.037051 12.14075 58.050266 11.066382 55.990234 11.005859 z M 44.054688 12.998047 C 44.254593 12.992629 44.455533 13.002151 44.65625 13.025391 C 45.191494 13.087361 45.724229 13.253115 46.226562 13.529297 L 46.978516 13.943359 C 48.855062 14.977423 51.135172 14.977423 53.011719 13.943359 L 53.767578 13.527344 C 55.776993 12.422572 58.275182 13.091715 59.462891 15.054688 L 59.910156 15.792969 C 61.016695 17.626492 62.991132 18.765884 65.132812 18.810547 L 65.998047 18.830078 C 68.292543 18.877268 70.121602 20.704935 70.167969 22.998047 L 70.167969 23 L 70.185547 23.863281 C 70.230747 26.003369 71.371106 27.975551 73.203125 29.085938 L 73.941406 29.533203 L 73.943359 29.533203 C 75.907228 30.720961 76.573621 33.218919 75.46875 35.228516 L 75.052734 35.984375 C 74.01867 37.860922 74.01867 40.141031 75.052734 42.017578 L 75.054688 42.019531 L 75.054688 42.021484 L 75.476562 42.777344 C 76.57678 44.78543 75.90661 47.2803 73.947266 48.466797 L 73.208984 48.914062 C 71.375461 50.020603 70.236069 51.995037 70.191406 54.136719 L 70.171875 55.001953 C 70.140879 56.535392 69.304264 57.847781 68.074219 58.572266 A 1.0001 1.0001 0 0 0 67.705078 58.773438 C 67.185543 59.013413 66.614047 59.159538 66.003906 59.171875 L 66.001953 59.171875 L 65.138672 59.189453 C 62.998584 59.234663 61.026402 60.375012 59.916016 62.207031 L 59.46875 62.945312 L 59.46875 62.947266 C 58.280992 64.911134 55.783032 65.577528 53.773438 64.472656 L 53.017578 64.056641 C 51.141031 63.022577 48.860922 63.022577 46.984375 64.056641 L 46.228516 64.472656 C 44.219464 65.577228 41.720812 64.906494 40.533203 62.945312 L 40.085938 62.208984 C 38.979064 60.374907 37.005712 59.233468 34.863281 59.189453 L 34 59.171875 L 33.998047 59.171875 C 33.385284 59.159273 32.810142 59.011258 32.289062 58.769531 A 1.0001 1.0001 0 0 0 31.943359 58.578125 C 30.704717 57.855468 29.861202 56.541221 29.830078 55.001953 L 29.810547 54.138672 L 29.810547 54.136719 C 29.764697 51.997379 28.626387 50.026067 26.794922 48.916016 L 26.054688 48.466797 C 24.090819 47.279039 23.422472 44.781081 24.527344 42.771484 L 24.943359 42.019531 L 24.943359 42.017578 C 25.976482 40.141356 25.97711 37.862305 24.943359 35.986328 L 24.527344 35.230469 C 23.422772 33.221417 24.093506 30.722765 26.054688 29.535156 L 26.791016 29.087891 L 26.792969 29.085938 C 28.625064 27.979121 29.765904 26.005967 29.810547 23.865234 L 29.810547 23.863281 L 29.828125 23 C 29.874495 20.705942 31.70493 18.876445 33.998047 18.830078 L 34.861328 18.8125 C 37.001416 18.7673 38.973598 17.626941 40.083984 15.794922 L 40.533203 15.056641 L 40.533203 15.054688 C 41.312017 13.767162 42.655338 13.035974 44.054688 12.998047 z M 50 18 C 38.407789 18 29 27.407789 29 39 C 29 50.592211 38.407789 60 50 60 C 61.419326 60 70.700194 50.866174 70.974609 39.511719 A 0.50013734 0.50013734 0 0 0 69.974609 39.488281 C 69.713025 50.311828 60.886674 59 50 59 C 38.948211 59 30 50.051789 30 39 C 30 27.948211 38.948211 19 50 19 C 53.348128 19 56.495028 19.831056 59.267578 21.285156 A 0.50005 0.50005 0 1 0 59.732422 20.400391 C 56.822972 18.874491 53.513872 18 50 18 z M 62.097656 21.996094 A 0.50005 0.50005 0 0 0 61.832031 22.902344 C 63.33998 24.013053 64.683864 25.323881 65.826172 26.804688 A 0.50005 0.50005 0 1 0 66.619141 26.195312 C 65.419449 24.640118 64.007833 23.262947 62.425781 22.097656 A 0.50005 0.50005 0 0 0 62.097656 21.996094 z M 68.154297 28.994141 A 0.50005 0.50005 0 0 0 67.714844 29.732422 C 68.203973 30.66586 68.617099 31.643289 68.957031 32.658203 A 0.50005 0.50005 0 1 0 69.904297 32.341797 C 69.54823 31.278711 69.11448 30.25014 68.599609 29.267578 A 0.50005 0.50005 0 0 0 68.154297 28.994141 z M 61.359375 31.007812 C 60.71949 31.044232 60.094254 31.321669 59.636719 31.833984 A 0.50005 0.50005 0 0 0 59.636719 31.835938 L 49.066406 43.673828 L 43.421875 36.900391 C 42.541587 35.844543 40.956193 35.701073 39.900391 36.580078 C 38.845433 37.460868 38.700348 39.045141 39.580078 40.101562 L 47.080078 49.101562 C 47.54507 49.660258 48.230431 49.987515 48.957031 50 A 0.50005 0.50005 0 0 0 48.966797 50 L 49 50 C 49.711355 50 50.389853 49.696297 50.865234 49.166016 A 0.50005 0.50005 0 0 0 50.865234 49.164062 L 63.365234 35.166016 L 63.365234 35.164062 C 64.279981 34.138408 64.191396 32.549395 63.166016 31.634766 C 62.653082 31.176611 61.99926 30.97139 61.359375 31.007812 z M 61.416016 32 C 61.798381 31.97817 62.188933 32.103014 62.5 32.380859 C 63.122125 32.935789 63.174982 33.875746 62.619141 34.498047 L 50.119141 48.498047 C 49.832588 48.816902 49.426026 49 49 49 L 48.974609 49 C 48.53721 48.9925 48.126665 48.796198 47.847656 48.460938 L 40.347656 39.460938 C 39.813386 38.819358 39.899973 37.882866 40.541016 37.347656 C 41.181178 36.816093 42.119064 36.901381 42.652344 37.541016 L 48.667969 44.759766 A 0.50005 0.50005 0 0 0 49.425781 44.771484 L 60.382812 32.501953 C 60.660277 32.191269 61.03365 32.021827 61.416016 32 z M 32.195312 60.876953 C 32.7528 61.054487 33.342917 61.157139 33.955078 61.169922 L 34.820312 61.189453 L 34.822266 61.189453 C 36.281835 61.219443 37.61992 61.994263 38.373047 63.242188 L 38.375 63.242188 L 38.822266 63.982422 C 39.570365 65.217811 40.687973 66.102615 41.951172 66.582031 L 40.898438 69.320312 A 0.50018671 0.50018671 0 0 0 41.832031 69.679688 L 42.916016 66.859375 C 43.606624 67.002138 44.322532 67.02631 45.03125 66.931641 L 37.748047 85.869141 L 33.324219 79.433594 A 1.0001 1.0001 0 0 0 32.294922 79.021484 L 24.59375 80.642578 L 32.195312 60.876953 z M 67.804688 60.878906 L 75.40625 80.642578 L 67.705078 79.021484 A 1.0001 1.0001 0 0 0 66.675781 79.433594 L 62.251953 85.869141 L 54.96875 66.933594 C 57.373776 67.261641 59.854592 66.173366 61.179688 63.982422 L 61.626953 63.244141 C 62.384567 61.99416 63.723728 61.220248 65.181641 61.189453 L 66.044922 61.169922 C 66.657136 61.157543 67.247074 61.056208 67.804688 60.878906 z M 66.142578 62.992188 A 0.50005 0.50005 0 0 0 66.091797 62.994141 A 0.50005 0.50005 0 0 0 65.667969 63.679688 L 67.976562 69.679688 A 0.50018718 0.50018718 0 1 0 68.910156 69.320312 L 66.601562 63.320312 A 0.50005 0.50005 0 0 0 66.142578 62.992188 z M 40.574219 70.994141 A 0.50005 0.50005 0 0 0 40.128906 71.320312 L 38.976562 74.320312 A 0.50018718 0.50018718 0 1 0 39.910156 74.679688 L 41.0625 71.679688 A 0.50005 0.50005 0 0 0 40.574219 70.994141 z M 69.603516 71.992188 A 0.50005 0.50005 0 0 0 69.552734 71.994141 A 0.50005 0.50005 0 0 0 69.128906 72.679688 L 70.667969 76.679688 A 0.50018671 0.50018671 0 0 0 71.601562 76.320312 L 70.0625 72.320312 A 0.50005 0.50005 0 0 0 69.603516 71.992188 z M 38.267578 76.994141 A 0.50005 0.50005 0 0 0 37.822266 77.320312 L 37.052734 79.320312 A 0.50018718 0.50018718 0 1 0 37.986328 79.679688 L 38.755859 77.679688 A 0.50005 0.50005 0 0 0 38.267578 76.994141 z" fill="#191b1e"/></svg>
