<?xml version="1.0" encoding="UTF-8"?>
<svg width="243px" height="157px" viewBox="0 0 243 157" version="1.1" xmlns="http://www.w3.org/2000/svg" xmlns:xlink="http://www.w3.org/1999/xlink">
    <!-- Generator: Sketch 61 (89581) - https://sketch.com -->
    <title>PyPGM</title>
    <desc>Created with Sketch.</desc>
    <defs>
        <path d="M8.8161523,12.3711662 L10.0531834,17.8827238 C10.5209739,17.8494526 10.9842496,17.9657058 11.3869788,18.2209112 C11.8854383,18.5363582 12.2314983,19.0274972 12.3606053,19.6031547 L12.5569278,20.4776217 C12.5968578,20.6566412 12.4843883,20.8343297 12.3047033,20.8749252 C12.1236873,20.9168517 11.9479953,20.8023857 11.9073998,20.6233662 L11.7110773,19.7488992 C11.6212348,19.3462717 11.3796583,19.0035392 11.0309363,18.7825932 C10.6835453,18.5629782 10.2696043,18.4904387 9.8676423,18.5809467 C9.0377638,18.7666212 8.5140153,19.5938377 8.6996898,20.4243817 L8.8960123,21.2988487 C8.9359423,21.4778682 8.8234728,21.6555567 8.6437878,21.6961522 L8.5712483,21.7041382 C8.4181833,21.7041382 8.2810903,21.5989892 8.2464843,21.4439277 L8.0501618,20.5694607 C7.80866923,19.4918001 8.40350832,18.4179734 9.40290655,18.0286806 L8.1666243,12.5169107 L8.8161523,12.3711662 Z" id="path-1"></path>
        <filter x="-76.6%" y="-48.2%" width="253.2%" height="175.0%" filterUnits="objectBoundingBox" id="filter-2">
            <feOffset dx="0" dy="-1" in="SourceAlpha" result="shadowOffsetOuter1"></feOffset>
            <feGaussianBlur stdDeviation="1" in="shadowOffsetOuter1" result="shadowBlurOuter1"></feGaussianBlur>
            <feColorMatrix values="0 0 0 0 0   0 0 0 0 0   0 0 0 0 0  0 0 0 0.5 0" type="matrix" in="shadowBlurOuter1"></feColorMatrix>
        </filter>
        <path d="M44.9523768,14.9392836 C40.9223887,18.1753958 36.3143616,20.6332648 31.2079122,22.065455 C28.6481832,22.7590618 25.9700551,23.2190797 23.1813565,23.244691 C20.4040521,23.2737941 17.7619831,22.9370709 15.2258702,22.3493551 C10.1608277,21.1601269 5.75080412,19.0228071 1.76866954,16.7307726 C-2.23335841,14.4118256 4.93806162,3.19910829 8.31069875,4.98055386 C11.6899073,6.77011679 15.0453919,8.15908277 18.2294387,8.80741519 C19.810177,9.12658114 21.3875704,9.25686066 22.8269606,9.19823543 C24.2580157,9.14919878 25.7646165,8.84357672 27.2581137,8.39349276 C30.2502443,7.46251775 33.2026797,5.80442558 35.6746655,3.67818195 C36.9186787,2.62243293 38.0446685,1.44885669 39.0002988,0.200137771 C39.9605547,-1.04375848 46.9697926,13.3221302 44.9523768,14.9392836 Z" id="path-3"></path>
    </defs>
    <g id="PyPGM" stroke="none" stroke-width="1" fill="none" fill-rule="evenodd">
        <g id="Level-2" transform="translate(63.000000, 38.000000)" stroke="#2D2D2D" stroke-width="5">
            <line x1="9.5" y1="8.20833333" x2="109.5" y2="8.20833333" id="Line" stroke-linecap="square"></line>
            <circle id="Oval" fill="#FFFFFF" cx="107" cy="8" r="8"></circle>
            <circle id="Oval" fill="#FFFFFF" cx="50" cy="8" r="8"></circle>
            <circle id="Oval" fill="#FFFFFF" cx="8" cy="8" r="8"></circle>
        </g>
        <g id="Level-3" transform="translate(29.000000, 73.000000)" stroke="#2D2D2D" stroke-width="5">
            <line x1="18.5" y1="8.20138889" x2="174.5" y2="8.20138889" id="Line" stroke-linecap="square"></line>
            <circle id="Oval" fill="#FFFFFF" cx="175" cy="7" r="7"></circle>
            <circle id="Oval" fill="#FFFFFF" cx="114" cy="7" r="7"></circle>
            <circle id="Oval" fill="#FFFFFF" cx="58" cy="7" r="7"></circle>
            <circle id="Oval" fill="#FFFFFF" cx="7" cy="8" r="7"></circle>
        </g>
        <g id="Group-3" transform="translate(67.107425, 23.558066)">
            <path d="M55.735128,0.230521684 C55.4634946,1.39324374 54.947556,2.56404356 54.186149,3.54230336 C53.4321073,4.52776733 52.4702323,5.32534993 51.4484209,5.92813996 C49.5363908,7.06127794 47.4411767,7.6315525 45.4337047,8.02307684 L45.0049738,8.10437892 C40.8320209,8.90350296 41.96302,8.99146489 38.0587232,10.1307453 C34.1757076,11.2861202 30.4962597,12.8934139 27.6818045,15.3472271 C27.4448212,15.5479157 27.2241786,15.7642342 27.0027712,15.9787003 L26.6679482,16.2968247 C26.4880381,16.453068 26.351123,16.617026 26.2201826,16.7805662 L25.8113415,17.2628723 C25.5653819,17.6029912 25.3284349,17.9493414 25.107269,18.3005919 L24.6684105,19.1263571 L24.5541042,19.4173874 C23.9101134,20.9402169 23.6481475,22.6091568 23.8088449,24.2142337 C23.9558859,25.8202656 24.5100061,27.3480857 25.3327484,28.6268326 C26.179249,29.8957702 27.3209112,30.921069 28.5436019,31.590336 C29.7728042,32.2668669 31.1555508,32.6247507 32.6904117,32.7845928 C33.0703957,32.8279233 33.4809602,32.8240868 33.8681276,32.8536209 C34.2714879,32.8571496 34.6874093,32.837929 35.0921783,32.8370708 L36.3547478,32.7642218 L37.6503748,32.6183018 C41.1427382,32.1133546 44.8680502,31.0822223 48.6755839,29.834778 C52.5100122,28.5794492 56.541284,27.0543358 61.0092709,25.8318962 C63.2415573,25.2207958 65.5896797,24.7023737 68.0485525,24.3756198 C70.4689962,24.0451205 73.1720065,23.9041381 75.7201237,24.0870433 C80.847577,24.4270841 85.7694406,25.7090912 90.4042312,27.7981017 C92.7260418,28.8352222 94.9571791,30.1149764 97.0864639,31.6124154 C99.210926,33.11448 101.246398,34.8341877 103.053235,36.8657856 C104.866461,38.8845002 106.488937,41.1742888 107.778936,43.7137562 C109.061987,46.251994 109.983443,49.0466642 110.4397,51.9163197 C110.880934,54.8041796 110.912788,57.657626 110.446611,60.5703422 C109.999622,63.4508399 109.085532,66.1705917 107.885712,68.6555902 C106.692761,71.1529737 105.193337,73.407191 103.516109,75.4491272 C101.840608,77.4973753 99.9697926,79.3221302 97.9523768,80.9392836 C93.9223887,84.1753958 89.3143616,86.6332648 84.2079122,88.065455 C81.6481832,88.7590618 78.9700551,89.2190797 76.1813565,89.244691 C73.4040521,89.2737941 70.7619831,88.9370709 68.2258702,88.3493551 C63.1608277,87.1601269 58.7508041,85.0228071 54.7686695,82.7307726 C51.0744899,80.5902061 47.7927458,78.2965613 44.628223,76.2104777 L43.8393635,75.6934896 C40.4376158,73.4650798 37.1489909,71.4929276 33.8588568,70.143134 C33.0369589,69.8086431 32.2173887,69.5074392 31.396932,69.2487529 C30.5754845,69.0004282 29.7433202,68.7644316 28.9987066,68.6213759 C27.47208,68.3155799 25.9816165,68.2448348 24.7795627,68.410371 C23.5669087,68.5715023 22.7113394,68.9452435 22.1080371,69.4492958 C21.5046542,69.9460633 20.9407468,70.7865766 20.6151959,71.9080403 C20.3027253,73.0264451 20.2482303,74.3506672 20.4752822,75.5677174 C20.5837305,76.1373583 20.8077639,76.8451526 21.0812118,77.4868803 C21.359942,78.1428192 21.7103883,78.800176 22.1281428,79.4511107 C22.9641683,80.7542306 24.0852052,82.0181226 25.3696695,83.2028292 C25.8889416,83.6766712 26.4208138,84.1383794 26.9985484,84.5832123 L28.5525076,85.7411627 L29.720928,86.5235799 C31.2984051,87.5565708 32.9586046,88.5275985 34.7231601,89.4209984 C36.472394,90.3283351 38.3023658,91.1759917 40.1856107,92.0066289 C43.9395365,93.6722125 47.9049671,95.271545 51.8795527,97.1489861 C53.8689704,98.0935619 55.859095,99.115709 57.8202565,100.244948 C59.8033765,101.406102 61.839563,102.749663 63.7281617,104.546112 C65.6015135,106.326902 67.3554818,108.675682 68.2260309,111.515081 C69.1363011,114.370572 68.9857207,117.356423 68.2197901,119.974899 C67.4541011,122.61523 66.040876,124.949188 64.2047772,126.896309 C62.2998422,128.852532 60.0578901,130.22079 57.6999659,131.138722 C55.3408481,132.039585 52.9006954,132.505262 50.4980987,132.600364 C48.0978267,132.710313 45.6976572,132.46603 43.4485399,131.959453 C40.4496411,131.298976 36.3296178,125.064764 33.3965276,123.002113 L32.5054695,122.379455 C31.3301848,121.5658 30.2088111,120.829387 29.1742315,120.302443 C27.9829327,119.695736 27.5083206,118.237833 28.1158211,117.045621 C28.6672581,115.963215 29.9208485,115.472921 31.0396328,115.846985 L31.2144118,115.913793 C35.0292836,117.5065 40.7095028,125.716177 44.4943708,126.23587 C46.3894354,126.499606 48.229267,126.562217 50.0366211,126.350494 C51.8396509,126.156657 53.5665129,125.67696 55.1025255,124.964024 C56.6276603,124.248846 57.9796609,123.234863 58.9377887,122.089321 C59.9064095,120.897587 60.6533948,119.473909 60.9562063,118.027256 C61.5953792,115.037259 60.6550549,112.794544 58.154508,110.679371 C56.9156406,109.637712 55.3612051,108.707319 53.650427,107.847039 C51.9031627,106.967868 50.0959432,106.151213 48.231744,105.384428 C44.4905428,103.851754 40.5507766,102.496784 36.5054019,100.956218 C34.4867941,100.189081 32.4397936,99.3716099 30.391188,98.4453249 C28.3427046,97.5391869 26.2921148,96.4925353 24.2772536,95.3190205 C20.2998107,92.946893 16.2791626,89.9937008 13.143617,85.6479125 C12.3681665,84.5609828 11.6570939,83.3889285 11.0486494,82.1329347 C10.4386739,80.8611808 9.94015083,79.5764872 9.5657939,78.0927042 C8.86494825,75.1964098 8.80041911,72.2007278 9.45507467,69.2113629 C10.1241444,66.2441477 11.6153252,63.2035776 14.1093032,60.8214915 C15.3534333,59.6263599 16.7660063,58.6874773 18.2466599,57.9801272 C19.7248125,57.2738097 21.2423663,56.8181839 22.7173513,56.538788 C25.6793121,55.9920228 28.4634084,56.1091096 31.0861745,56.5132246 C32.4207427,56.7218088 33.6330521,57.0157054 34.841455,57.3334615 C36.0464259,57.6634653 37.2215713,58.0453006 38.3692907,58.4642189 C42.9576107,60.1585114 47.0007418,62.4458517 50.7357243,64.6929863 C54.4753325,66.9449435 57.9380616,69.1991083 61.3106987,70.9805539 C64.6899073,72.7701168 68.0453919,74.1590828 71.2294387,74.8074152 C72.810177,75.1265811 74.3875704,75.2568607 75.8269606,75.1982354 C77.2580157,75.1491988 78.7646165,74.8435767 80.2581137,74.3934928 C83.2502443,73.4625177 86.2026797,71.8044256 88.6746655,69.678182 C89.9186787,68.6224329 91.0446685,67.4488567 92.0002988,66.2001378 C92.9605547,64.9562415 93.7689121,63.6436309 94.3481844,62.3114453 C95.5555763,59.634224 95.8172586,57.053581 95.3882895,54.4024432 C95.1597964,53.1095884 94.7103473,51.8643476 94.088133,50.6444819 C93.4713173,49.4220945 92.6505145,48.2324115 91.6513954,47.1113763 C90.6496174,45.9952442 89.4873843,44.9272129 88.1894779,43.967303 C86.8943499,43.0041968 85.4665268,42.1550076 83.9776205,41.3889971 C82.4840108,40.6293193 80.9058431,39.9973462 79.2945072,39.4920572 C77.6868421,38.9779347 76.0373544,38.5893861 74.4025041,38.3794997 C72.7499479,38.1678495 71.2178204,38.0961583 69.4452847,38.1986638 C67.7083578,38.2952486 65.9001352,38.5374798 64.0248964,38.8761699 C60.2720373,39.5562897 56.2826427,40.6745035 51.9977145,41.6937355 C47.6929556,42.7053485 43.1517554,43.6228533 38.2075979,43.5736169 L36.3419819,43.5102359 C35.7069909,43.4568623 35.0759302,43.4045004 34.4434581,43.3380853 L33.1611448,43.1313108 C32.9479079,43.0951099 32.7345781,43.0568984 32.5206544,43.014964 L31.5507545,42.7909039 C31.2287331,42.7155918 30.9071948,42.6356894 30.5837533,42.5393023 C28.0031357,41.8118934 25.4010507,40.5199112 23.2586868,38.6575827 C21.1104677,36.797379 19.4989646,34.4866674 18.4755876,31.9761577 C17.4430995,29.4641409 17.0900068,26.7635264 17.2440418,24.1582475 C17.3926365,21.542628 18.2397462,19.0179667 19.5080286,16.7944931 L19.7446864,16.3765462 L20.5654104,15.191724 C20.9564829,14.6883605 21.3718538,14.2013093 21.7998124,13.73482 L22.4853063,13.0753537 C22.6381496,12.9265781 22.7909053,12.7820016 22.944563,12.6503228 L24.1008098,11.7215974 C24.2559548,11.6000591 24.4127021,11.4812201 24.5727166,11.3675371 C26.4823859,9.97577095 28.5702179,8.92405647 30.6838723,8.1128333 C32.5664697,7.39148078 34.4770133,6.85656906 36.383288,6.43505307 L39.4298673,5.78987059 C40.3492064,5.60123951 40.8408799,5.51681138 41.5437317,5.42647726 L44.5323752,5.07462063 C46.5521352,4.84632987 48.4726971,4.42599199 50.1205594,3.57700973 L50.3442156,3.45520332 C52.1194025,2.43576591 56.0016286,-0.867158969 55.735128,0.230521684 Z" id="Fill-28" fill="#73A067"></path>
            <path d="M21.7720654,31.7730916 C20.7045559,31.2194823 19.410249,31.0531114 18.2816564,31.4596672 C18.3460156,31.6318506 18.4049165,31.8057022 18.4755876,31.9761577 C19.4989646,34.4866674 21.1104677,36.797379 23.2586868,38.6575827 C23.4842469,38.8536591 23.7176856,39.0397499 23.9531088,39.2235578 C24.4573837,38.3520492 24.7336186,37.291928 24.6479038,36.1336096 C24.5133349,34.3195739 23.386471,32.6105202 21.7720654,31.7730916 Z M50.7034687,68.6963586 C51.5181056,68.178815 52.6158985,67.3134052 53.4705624,66.362503 C52.5747109,65.8106132 51.6642093,65.2515998 50.7357243,64.6929863 C48.630752,63.4267097 46.4230177,62.1504651 44.0788938,60.9720997 C43.4377819,61.8737614 42.9644539,62.8811939 42.7836992,63.9698037 C42.462843,65.9066008 43.2049999,68.0812635 44.8773365,69.1093365 C46.6262595,70.1839442 48.9702541,69.7966082 50.7034687,68.6963586 Z M35.8790326,57.6430072 C35.5337951,57.5384953 35.1916733,57.4294771 34.841455,57.3334615 C33.6330521,57.0157054 32.4207427,56.7218088 31.0861745,56.5132246 C29.1574797,56.2162459 27.141135,56.0763495 25.0310697,56.2397668 C25.0476434,56.6117024 25.108203,56.980991 25.2474232,57.3344868 C25.7946531,58.7208414 27.1601157,59.6104142 28.5387074,60.1787222 C29.4947173,60.5728791 30.5346138,60.8603916 31.5564954,60.7001639 C32.842149,60.4974762 34.843386,59.1211781 35.8790326,57.6430072 Z M63.8374276,84.8648129 C63.2362392,83.4370497 62.1363972,82.2919008 61.0043633,81.2257565 L60.7427656,80.9810329 C59.7285693,80.0368781 58.683906,79.1047172 57.4729258,78.4312005 C56.2627395,77.7567707 54.8587865,77.3531969 53.4864684,77.5430756 C52.0700062,77.7394719 50.8183,78.5993482 49.9811176,79.7634502 C51.5124393,80.7619302 53.0966401,81.7622875 54.7686695,82.7307726 C57.6695282,84.4011165 60.8014002,85.9836893 64.2443706,87.1825635 C64.2790182,86.3717693 64.1201896,85.5354795 63.8374276,84.8648129 Z M21.7658163,17.0264326 C21.5525981,16.301586 21.1097214,15.6961501 20.5764643,15.1780858 L20.5654104,15.191724 L19.7446864,16.3765462 L19.5080286,16.7944931 C18.7203255,18.1755611 18.0956045,19.6734567 17.6997178,21.2364022 C18.4882663,21.4312777 19.3409278,21.3716538 20.0653124,20.998509 C21.4536849,20.2838888 22.2076039,18.5239407 21.7658163,17.0264326 Z M23.8088449,24.2142337 C23.7772539,23.8973826 23.7665442,23.5786426 23.7677241,23.2582134 C23.4847152,23.2831495 23.2173918,23.3361501 22.9989842,23.4324742 C22.3525741,23.718686 21.8489595,24.3727245 21.8636609,25.0797183 C21.8737609,25.5730406 22.1180083,26.0228825 22.3873899,26.4423538 L22.4891779,26.5982575 C22.7726359,27.0274361 23.1100294,27.4858641 23.6124359,27.5995414 C23.9714849,27.6807876 24.338819,27.5616131 24.669264,27.3871241 C24.2200946,26.4034588 23.9109288,25.3306672 23.8088449,24.2142337 Z M85.6520354,75.1711906 C86.004352,74.230114 86.0286067,72.970189 85.6849392,71.8762236 C83.9613282,72.9543594 82.117435,73.8149053 80.2581137,74.3934928 C78.7646165,74.8435767 77.2580157,75.1491988 75.8269606,75.1982354 C75.6572097,75.2053883 75.479795,75.2010694 75.3066091,75.2020298 C75.3210045,75.4814873 75.3537207,75.7592349 75.4127764,76.0334252 C75.6267338,77.0386843 76.1479149,78.0095949 76.9904962,78.5969441 C78.0408841,79.3288634 79.436324,79.3715168 80.6884221,79.1059912 C82.8430621,78.6478428 84.8785533,77.2339842 85.6520354,75.1711906 Z M41.8342425,43.4435243 C45.1051501,43.1829585 48.2046079,42.5679074 51.1871513,41.8822656 L52.0968387,41.6700792 C52.1426567,40.8289136 52.0149903,39.9844409 51.6687344,39.2152916 C50.9343648,37.5812858 49.1825265,36.3975267 47.3959823,36.5327463 C46.0326024,36.6358023 44.8091938,37.446527 43.8737502,38.444247 C42.8293519,39.5580834 42.0562419,40.9638616 41.8650348,42.4794735 C41.8255453,42.7978642 41.8194234,43.121212 41.8342425,43.4435243 Z M40.5141769,32.5505581 C40.6131195,32.3832516 40.6992385,32.2104092 40.7898041,32.0398289 C39.7261508,32.2711638 38.6773595,32.4697249 37.6503748,32.6183018 L36.3547478,32.7642218 L35.0921783,32.8370708 C34.6878659,32.8383259 34.2714879,32.8571496 33.8681276,32.8536209 C33.4809602,32.8240868 33.0703957,32.8279233 32.6904117,32.7845928 C31.5961553,32.6702749 30.5827683,32.4490949 29.643765,32.0906246 C29.6401823,32.8417863 29.7800996,33.5854816 30.1251681,34.2517913 C31.1085513,36.1535658 33.5700286,36.9802208 35.6513978,36.4800231 C37.7332235,35.9802223 39.4201708,34.3900372 40.5141769,32.5505581 Z M46.4059181,126.422548 C45.773986,126.382255 45.1313031,126.315984 44.4943708,126.23587 C42.1413006,125.939895 40.4526091,123.337348 37.4519032,121.068131 L37.873221,122.018634 C39.0896219,124.734755 39.8780494,126.23241 40.2385033,126.511598 L40.6335576,126.812497 C41.5014709,127.460218 42.4491432,128.053037 43.5156669,128.056147 C44.6647694,128.059408 45.7178657,127.345932 46.4059181,126.422548 Z M31.396932,69.2487529 C32.2173887,69.5074392 33.0369589,69.8086431 33.8588568,70.143134 C34.8120674,70.5340558 35.7654659,70.9828585 36.7214904,71.4692158 C36.6221691,70.6253341 36.4143767,69.8186276 36.1849234,69.2295733 C35.6738513,67.91874 34.7754562,66.7233329 33.5362116,66.05651 C32.2978204,65.3896274 30.7036042,65.3192759 29.506028,66.0578637 C28.6570924,66.5816654 28.1120487,67.4650306 27.8755384,68.437034 C28.2446655,68.4845545 28.6203252,68.54577 28.9987066,68.6213759 C29.7433202,68.7644316 30.5754845,69.0004282 31.396932,69.2487529 Z M59.4839645,130.096246 C58.7706158,129.590775 57.9542931,129.115234 57.0828363,129.188179 C56.2940511,129.253629 55.6076803,129.765634 55.0904006,130.365307 C54.6385524,130.888788 54.2888838,131.505902 54.111655,132.172711 C55.3178453,131.931409 56.5191566,131.58967 57.6999659,131.138722 C58.3700207,130.877874 59.0290724,130.576198 59.6749186,130.238993 L59.4839645,130.096246 L59.4839645,130.096246 Z M49.3487007,132.611265 C49.2997047,132.438007 49.2390968,132.264275 49.160565,132.091796 C48.5821308,130.823412 47.1690233,130.01908 45.7760989,130.067594 C44.5457601,130.110744 43.3792568,130.778543 42.6329952,131.758746 C42.9052603,131.825476 43.1732786,131.898936 43.4485399,131.959453 C45.3381517,132.384387 47.3352563,132.610969 49.3487007,132.611265 Z M18.842881,59.1349108 C18.759966,58.7341644 18.6208146,58.3141929 18.4331322,57.8993304 L18.2466599,57.9801272 L18.2466599,57.9801272 C16.7664629,58.6878742 15.3534333,59.6263599 14.1093032,60.8214915 C11.8983349,62.9333426 10.4783881,65.5636737 9.71764118,68.2010857 C10.3052827,68.3255277 10.9082759,68.375135 11.5066705,68.3405815 C13.8649771,68.2069783 16.0864298,66.8706021 17.4661159,64.9523947 C18.663704,63.2879313 19.2565039,61.1434265 18.842881,59.1349108 Z M58.3920238,122.680265 C57.4940009,123.581451 56.3590385,124.37527 55.1025255,124.964024 C53.8311058,125.554249 52.4254969,125.973314 50.9576715,126.214042 C51.7422961,127.199123 53.0084625,127.778724 54.2705425,127.747936 C55.6229368,127.714692 56.9297896,127.011776 57.7532111,125.939122 C58.4595453,125.019606 58.6601074,123.791094 58.3920238,122.680265 Z M29.329912,93.5162107 C28.981814,91.1445993 27.5257158,88.9834085 25.5230788,87.6658049 C24.3434642,86.8888877 22.9028731,86.3845245 21.5171103,86.6581103 C20.3732445,86.8830465 19.3776559,87.6216619 18.6474412,88.5308408 C18.1729358,89.1228055 17.8115447,89.7930582 17.5633218,90.5055721 C19.6986843,92.4026978 21.9953683,93.957475 24.2772536,95.3190205 C25.7766973,96.1927918 27.2964554,96.9952409 28.82035,97.7219242 C29.3904724,96.3938092 29.5073795,94.7294378 29.329912,93.5162107 Z M21.8813083,79.0305211 C21.5761217,78.5175219 21.3003516,78.0020369 21.0812118,77.4868803 C20.8077639,76.8451526 20.5837305,76.1373583 20.4752822,75.5677174 C20.2482303,74.3506672 20.3027253,73.0264451 20.6151959,71.9080403 L20.6720596,71.7522532 C20.073162,71.3687187 19.4201612,71.149784 18.7470422,71.2380222 C18.0517914,71.3286656 17.4294763,71.7264074 16.9206934,72.2084118 C15.9666758,73.1122272 15.3345306,74.3567662 15.2037715,75.6635924 C15.073072,76.9712722 15.4536218,78.3289708 16.273327,79.3557697 C16.8063299,80.0235184 17.5524553,80.5622916 18.400598,80.6710906 C19.2608689,80.7816146 20.1251373,80.4402861 20.8400352,79.9498726 C21.1792842,79.7173028 21.5400564,79.4000322 21.8813083,79.0305211 Z M60.5482147,75.5556057 C61.2938707,77.2651565 63.0188707,78.561863 64.8839466,78.5991222 C66.2830961,78.6273644 67.6301923,77.9786706 68.6939761,77.0684662 L69.0026507,76.7957575 C69.5579874,76.2912712 70.2964521,75.5479427 70.8990332,74.7310275 C67.813078,74.0565379 64.5736594,72.708344 61.3106987,70.9805539 L60.615354,70.6037636 L60.615354,70.6037636 C59.9615058,72.1757418 59.8698724,73.9991625 60.5482147,75.5556057 Z M90.4149034,85.7029074 C93.1075469,84.4017686 95.628605,82.8055757 97.9523768,80.9392836 C99.9697926,79.3221302 101.840608,77.4973753 103.516109,75.4491272 C103.679775,75.2507065 103.840126,75.0478003 104.000021,74.8444971 C102.325628,74.7437292 100.612778,74.9638529 99.2461502,75.3638962 C95.9051737,76.341136 93.007701,78.7484353 91.434493,81.8547794 C90.8297321,83.0493729 90.415803,84.3665658 90.4149034,85.7029074 Z M70.5183404,87.1147951 C70.3683051,87.6553381 70.2893323,88.2063503 70.2657394,88.7582072 C72.1730217,89.0862735 74.1402653,89.2660551 76.1813565,89.244691 C78.3889249,89.2245511 80.5257659,88.9288927 82.5902884,88.4637517 C80.7993326,86.0643815 77.991313,84.4154206 75.0014127,84.1394719 C74.0337003,84.050184 73.0030094,84.1089627 72.1773754,84.6225581 C71.3093669,85.1618453 70.7917488,86.130777 70.5183404,87.1147951 Z M68.3247002,111.877416 C68.2901034,111.756757 68.2644386,111.635045 68.2260309,111.515081 C67.452119,108.990558 65.978637,106.856742 64.3454568,105.16208 C63.7694186,105.859779 63.402482,106.732834 63.3688816,107.638329 C63.309208,109.225795 64.2530799,110.807842 65.6786562,111.508379 C66.3635142,111.845591 67.3951743,112.015319 68.3247002,111.877416 Z M53.4392928,107.746873 L53.650427,107.847039 L53.650427,107.847039 C55.3612051,108.707319 56.9156406,109.637712 58.154508,110.679371 C58.8495686,111.266744 59.4193415,111.86545 59.8727409,112.486446 C60.0697492,112.004372 60.2004341,111.481479 60.2341498,110.927198 C60.3145306,109.617462 59.6969633,108.286201 58.6462891,107.501125 C57.6086772,106.724999 56.1892112,106.50434 54.9522969,106.88888 C54.3932262,107.062631 53.8789557,107.361903 53.4392928,107.746873 Z M43.3984388,93.403855 C42.3148257,92.938856 41.2403237,92.4753641 40.1856107,92.0066289 C38.3023658,91.1759917 36.472394,90.3283351 34.7231601,89.4209984 C34.4021495,89.258185 34.0880655,89.0901699 33.7735847,88.9226113 C33.1919418,90.5765958 33.3989009,92.5120786 34.4388176,93.9283078 C35.703339,95.6496066 38.1261844,96.4450842 40.1419977,95.7371928 C41.0959269,95.4024599 42.3626533,94.5059392 43.3984388,93.403855 Z M63.6193035,124.546014 C63.9163277,125.156932 64.3567365,125.720942 64.9096428,126.102976 C66.4025325,124.325661 67.5553572,122.26636 68.2197901,119.974899 C68.4448996,119.207823 68.6076371,118.40737 68.715111,117.589339 C68.5206773,117.409097 68.3049295,117.255219 68.0589594,117.153629 C67.2190363,116.806676 66.2391406,117.119638 65.4838321,117.627029 C63.3206955,119.079833 62.4811044,122.202635 63.6193035,124.546014 Z M48.231744,105.384428 L49.0232734,105.726189 L49.0232734,105.726189 C49.171396,105.139893 49.2291206,104.530329 49.17023,103.9212 C48.9807143,101.959195 47.6558175,100.153348 45.8503885,99.3622976 C44.9974599,98.9888075 43.9739021,98.8429576 43.1510945,99.2804499 C42.5048722,99.6245426 42.0828966,100.268584 41.6976192,100.891619 C41.3713987,101.420895 41.0509588,101.977642 40.7965409,102.552502 C43.3379887,103.486351 45.828718,104.40016 48.231744,105.384428 Z M60.2158021,101.747784 C59.4171945,101.206677 58.6144058,100.710033 57.8202565,100.244948 C56.1424315,99.2794415 54.442785,98.394368 52.7411627,97.5668978 C52.5138928,98.2294872 52.3667189,98.9152083 52.378263,99.613846 C52.3975142,100.723206 52.8319197,101.857571 53.6930184,102.556411 C54.7969265,103.452695 56.4083863,103.487533 57.7466961,103.007561 C58.3437125,102.793847 59.3797586,102.333295 60.2158021,101.747784 Z M30.2492754,10.7780423 C29.6403775,11.2940647 29.2219528,12.0502148 29.1782121,12.847493 C29.1556493,13.2607612 29.2320943,13.6671061 29.3670528,14.0577806 C31.0530557,12.895648 32.9491598,11.9538304 34.9629977,11.1808927 C34.7847541,10.9562059 34.5884523,10.7615143 34.3802877,10.6118233 C33.1747157,9.74580622 31.3815913,9.81758816 30.2492754,10.7780423 Z M94.3481844,62.3114453 C93.7689121,63.6436309 92.9605547,64.9562415 92.0002988,66.2001378 L91.8664605,66.3651671 L91.8664605,66.3651671 C94.0889149,67.2141112 96.8329372,66.5925285 98.3695682,64.7722729 C99.1842333,63.8074427 99.656643,62.5170373 99.4791697,61.2669299 C99.2842684,59.8902457 98.3549735,58.7313069 97.3339491,57.7876295 L97.0255964,57.50717 C96.632803,57.1552514 96.1296428,56.7250657 95.5718009,56.3031139 C95.6345636,58.2984258 95.2655791,60.2767555 94.3481844,62.3114453 Z M74.4025041,38.3794997 C74.9057762,38.4442282 75.4106001,38.5311481 75.915227,38.6275163 C75.9879342,37.6189366 75.8570453,36.6057246 75.4702597,35.7291964 C74.4649431,33.4524305 72.1092113,31.9240822 69.6419965,31.591857 C67.1751786,31.2591752 64.6418994,32.0182609 62.5427589,33.3559476 C60.9063409,34.3992538 59.431352,35.9051446 59.0280153,37.8031095 C58.8760426,38.5183276 58.9101599,39.2454059 59.0662882,39.9510871 C60.7641811,39.5416025 62.4177957,39.1673774 64.0248964,38.8761699 C65.9001352,38.5374798 67.7083578,38.2952486 69.4452847,38.1986638 C71.2178204,38.0961583 72.7499479,38.1678495 74.4025041,38.3794997 Z M88.1894779,43.967303 C89.3182277,44.8018113 90.3366678,45.7207964 91.2438584,46.680153 C92.2879984,45.1885229 92.9763227,43.2264587 92.9501222,41.7294802 C92.9079377,39.323183 91.1994741,37.0364054 88.9039543,36.3139334 C86.6079779,35.5910646 83.8981401,36.4868614 82.4853698,38.4348283 C82.074696,39.0013161 81.7860687,39.6450384 81.6123941,40.3197473 C82.4184901,40.6429067 83.2092674,40.998443 83.9776205,41.3889971 C85.4665268,42.1550076 86.8943499,43.0041968 88.1894779,43.967303 Z M54.9297459,32.7831697 C55.8684008,32.5681233 56.5749444,31.8436246 57.1958242,31.0871286 L57.9416433,30.1489872 C58.8950853,28.9338062 59.9571392,27.4966031 60.5097434,25.9740376 C56.9910568,26.961131 53.7392332,28.1216858 50.638685,29.1764589 C50.8332294,30.1800735 51.293805,31.1183415 52.0341015,31.8252004 C52.8005435,32.5563905 53.8973563,33.0200376 54.9297459,32.7831697 Z M75.7201237,24.0870433 C75.5011225,24.0706228 75.2755141,24.0701028 75.0530601,24.0594988 C75.1798174,24.5536694 75.3874587,25.0331783 75.6476748,25.4734167 C77.0928615,27.9201231 79.9430051,29.4662177 82.781927,29.3431775 C84.6807083,29.2614343 86.8427806,28.3576258 88.2201166,26.890298 C84.2319662,25.340156 80.0509524,24.3742919 75.7201237,24.0870433 Z M99.5903152,45.427086 C99.696064,46.4978058 100.116781,47.5529335 100.861118,48.3298403 C101.605455,49.1067471 102.686648,49.5800634 103.759197,49.4943424 C104.776267,49.4125007 105.695445,48.8567701 106.493647,48.2207281 C107.19847,47.6598308 108.06374,46.8728632 108.792964,45.9740458 C108.485573,45.2026076 108.149264,44.4469147 107.778936,43.7137562 C106.648,41.4865146 105.260323,39.4513368 103.71299,37.6228763 C102.590421,38.587795 101.540001,39.6523066 100.764763,40.91114 C99.9344382,42.2591654 99.4346643,43.8512465 99.5903152,45.427086 Z M106.449673,65.8184247 C107.125369,66.2085966 107.932805,66.4711953 108.780715,66.6134605 C109.538818,64.7048397 110.119033,62.6808625 110.446611,60.5703422 C110.662993,59.2185038 110.767923,57.879605 110.778271,56.5434604 C110.045318,56.0826734 109.227774,55.792049 108.348976,55.7600125 C106.016082,55.6744147 103.85497,57.6283956 103.489551,59.9336842 C103.124131,62.2389728 104.427548,64.6514217 106.449673,65.8184247 Z" id="Shape" fill="#F7CD5D"></path>
            <path d="M28.5798912,14.0973859 L29.217794,13.4871338 L29.217794,13.4871338 C29.2507343,13.6760949 29.3002286,13.8626119 29.3628032,14.0460701 C28.7748883,14.4512699 28.2125042,14.8842746 27.6818045,15.3472271 C27.5474024,15.4612634 27.417626,15.5801224 27.2901923,15.7018194 C27.4330343,15.4877011 27.5719461,15.272571 27.7240783,15.0625203 L28.1321256,14.5811274 L28.290692,14.3894959 L28.290692,14.3894959 C28.3768227,14.2904139 28.4707544,14.1925017 28.5798912,14.0973859 Z M37.535724,8.86059162 L40.8369689,7.89800528 C44.1216337,6.96674117 44.8710774,6.95889548 46.9596865,6.28215733 L48.4878043,5.78982372 C50.1667823,5.2425776 51.7846065,4.66250071 53.3607608,3.72824456 C53.8302545,3.45097314 54.2845761,3.12844748 54.7144772,2.76946233 C54.5981508,2.96414391 54.4729312,3.15430123 54.3391556,3.33862418 L54.2638285,3.44118561 L54.2638285,3.44118561 L54.1731702,3.55907817 C54.0701929,3.69321694 53.9635031,3.82332687 53.8535574,3.94980487 C53.2766378,4.61266805 52.6088539,5.17813157 51.9001912,5.64614762 L51.5191426,5.8862068 L51.5191426,5.8862068 L51.4484209,5.92813996 C49.5363908,7.06127794 47.4411767,7.6315525 45.4337047,8.02307684 L45.0049738,8.10437892 C40.8320209,8.90350296 41.96302,8.99146489 38.0587232,10.1307453 C37.0063772,10.4440564 35.9691616,10.7897594 34.9597418,11.1772608 C34.7820145,10.9538244 34.5875391,10.7607205 34.3802877,10.6118233 C34.2168489,10.4945987 34.0434485,10.3943669 33.8613964,10.3114649 L34.5163704,9.98373329 C35.4760527,9.5182664 36.140315,9.27834067 37.535724,8.86059162 L37.535724,8.86059162 Z" id="Shape" fill="#67915E"></path>
            <path d="M29.5941444,13.1473317 C30.861334,12.0427891 32.3038606,11.1091023 33.8613964,10.3114649 C34.0434485,10.3943669 34.2168489,10.4945987 34.3802877,10.6118233 C34.5875391,10.7607205 34.7820145,10.9538244 34.9597418,11.1772608 C32.9480079,11.9496225 31.0471587,12.8849104 29.3628032,14.0460701 C29.3002286,13.8626119 29.2507343,13.6760949 29.217794,13.4871338 C29.3404648,13.3709159 29.464565,13.2567423 29.5941444,13.1473317 Z" id="Fill-32" fill="#D9B754"></path>
            <path d="M24.0199801,67.249857 C24.6236793,66.7453481 25.4788516,66.3720635 26.6919026,66.2104756 C27.4683747,66.1038604 28.3657649,66.0951431 29.3159505,66.1852278 C29.1036456,66.3381615 28.9127024,66.5144743 28.7432194,66.7094422 C28.3209011,67.1952639 28.0314532,67.796588 27.8755384,68.437034 L28.1036924,68.4678239 C27.0310416,68.3156388 26.0016806,68.2834255 25.1081071,68.3716432 L24.7400235,68.4152801 L24.7400235,68.4152801 C23.9427896,68.5254913 23.3012293,68.7277394 22.7854458,68.999242 C23.0130734,68.4644232 23.295439,68.013261 23.6038425,67.6584833 C23.738397,67.5036961 23.8780754,67.366991 24.0199801,67.249857 Z M35.7711967,67.9432386 C39.0609338,69.2934888 42.3499557,71.2651843 45.7517034,73.4935942 C47.8755512,74.8764831 50.0416953,76.367485 52.3406118,77.8560641 C51.5687588,78.1759208 50.8788157,78.6920353 50.3231337,79.3312744 C50.2024714,79.4700805 50.0885983,79.613987 49.9811176,79.7634502 C50.5602005,80.1408226 51.1467882,80.5185622 51.7428086,80.8948051 L51.6579188,80.8426254 C48.8949293,79.0968064 46.3380266,77.3202336 43.8393635,75.6934896 C41.4236382,74.1105849 39.0641669,72.6575458 36.7211323,71.4640947 C36.6215335,70.6223766 36.4138604,69.8173772 36.1849234,69.2295733 C35.9905982,68.7319795 35.7408362,68.2511275 35.4380428,67.8091491 L35.7711967,67.9432386 L35.7711967,67.9432386 Z M64.2443706,87.1825635 C64.2790182,86.3717693 64.1201896,85.5354795 63.8374276,84.8648129 C63.695411,84.5265221 63.5253895,84.2047704 63.333099,83.8957258 C65.4696943,84.8047081 67.7293156,85.5841535 70.1382101,86.1494597 C70.3605118,86.2008145 70.5840041,86.2507996 70.8086276,86.2985613 C70.6907641,86.563252 70.5950741,86.8383998 70.5183404,87.1147951 C70.3683051,87.6553381 70.2893323,88.2063503 70.2657394,88.7582072 C71.4103122,88.9550435 72.5762767,89.0984535 73.7669167,89.177005 L74.6037354,89.2218291 C72.3981334,89.135907 70.2775472,88.824853 68.2258702,88.3493551 C63.8062512,87.3117911 59.8853544,85.5526148 56.3124112,83.5982042 L55.1341105,82.9402252 C57.9326133,84.5328153 60.9455545,86.0336473 64.2443706,87.1825635 Z M82.5902884,88.4637517 C82.1535683,87.8788987 81.6564931,87.3385774 81.1112718,86.8517977 C82.8272013,86.6511855 84.496958,86.3054219 86.1198551,85.8660162 C87.6436461,85.438258 89.1241707,84.9191796 90.5571822,84.3155105 C90.4656696,84.7730539 90.4153257,85.2367241 90.4149034,85.7029074 C92.6491137,84.6235889 94.7654359,83.3404744 96.7485717,81.8690275 L97.9223485,80.9636833 C93.899663,84.187706 89.301738,86.6367206 84.2079122,88.065455 C82.0636866,88.6461185 79.8368226,89.0636872 77.5314498,89.1988819 L76.2662126,89.2439035 C78.4437081,89.2168607 80.5519264,88.9227749 82.5902884,88.4637517 Z" id="Shape" fill="#67915E"></path>
            <path d="M29.3159505,66.1852278 C29.8352782,66.2342529 30.3708675,66.3134465 30.9110465,66.4214805 C31.6552632,66.5649928 32.4874275,66.8009894 33.3092719,67.0488575 C34.0179511,67.2729045 34.7275285,67.5281942 35.4380428,67.8091491 C35.7408362,68.2511275 35.9905982,68.7319795 36.1849234,69.2295733 C36.4138604,69.8173772 36.6215335,70.6223766 36.7211323,71.4640947 C36.0157863,71.1052648 35.3118285,70.7697366 34.608263,70.4613792 L33.8588568,70.143134 L33.8588568,70.143134 C33.0369589,69.8086431 32.2173887,69.5074392 31.396932,69.2487529 C30.5754845,69.0004282 29.7433202,68.7644316 28.9987066,68.6213759 C28.6981771,68.5613394 28.3995545,68.5101753 28.1036924,68.4678239 L27.8755384,68.437034 L27.8755384,68.437034 C28.0314532,67.796588 28.3209011,67.1952639 28.7432194,66.7094422 C28.9127024,66.5144743 29.1036456,66.3381615 29.3159505,66.1852278 Z M52.3406118,77.8560641 C53.7321782,78.7571057 55.1721175,79.656909 56.6806125,80.5313338 C58.7695563,81.7339758 60.9760017,82.8936649 63.333099,83.8957258 C63.5253895,84.2047704 63.695411,84.5265221 63.8374276,84.8648129 C64.1201896,85.5354795 64.2790182,86.3717693 64.2443706,87.1825635 C60.9455545,86.0336473 57.9326133,84.5328153 55.1341105,82.9402252 L54.4950798,82.5715047 L54.4950798,82.5715047 C52.9234367,81.6526073 51.4288249,80.7068812 49.9811176,79.7634502 C50.0885983,79.613987 50.2024714,79.4700805 50.3231337,79.3312744 C50.8788157,78.6920353 51.5687588,78.1759208 52.3406118,77.8560641 Z M78.0936964,87.0447956 C79.1141331,87.0356222 80.1206064,86.9678158 81.1112718,86.8517977 C81.6564931,87.3385774 82.1535683,87.8788987 82.5902884,88.4637517 C80.7784111,88.8717724 78.9113386,89.149472 76.9894778,89.2251388 L75.9374274,89.245881 L75.9374274,89.245881 C73.9831351,89.2513121 72.0970559,89.0731452 70.2657394,88.7582072 C70.2893323,88.2063503 70.3683051,87.6553381 70.5183404,87.1147951 C70.5950741,86.8383998 70.6907641,86.563252 70.8086276,86.2985613 C73.1392646,86.7934344 75.5602018,87.0710017 78.0936964,87.0447956 Z M99.8643198,78.7398448 C101.256737,77.6231147 102.573174,76.4010558 103.809961,75.0825018 L103.516109,75.4491272 L103.516109,75.4491272 C103.288559,75.7274917 103.057695,76.0013707 102.823117,76.2712209 C101.495831,77.798089 100.057093,79.1945038 98.5293913,80.4676275 L97.9259804,80.9604274 L97.9259804,80.9604274 C95.6072492,82.8190767 93.0959558,84.4077252 90.4149034,85.7029074 C90.4153257,85.2367241 90.4656696,84.7730539 90.5571822,84.3155105 C93.9256397,82.8972126 97.0370327,81.0101522 99.8643198,78.7398448 Z" id="Shape" fill="#D9B754"></path>
            <path d="M62.60479,83.366235 L63.558875,83.262175 L64.03743,83.20833 L64.50812,83.11274 L64.03743,83.20833 L63.558875,83.262175 L62.60479,83.366235 C62.195205,83.38862 61.783805,83.39951 61.37422,83.39951 C61.783805,83.39951 62.195205,83.38862 62.60479,83.366235 Z M60.69541,83.390435 L60.022045,83.329935 L60.69541,83.390435 C60.71961,83.39104 60.74381,83.391645 60.767405,83.39225 C60.74381,83.391645 60.71961,83.39104 60.69541,83.390435 Z M49.76064,-3.23165 C51.09285,-3.652125 52.550295,-3.900175 54.055535,-4 C54.06461,-3.999395 54.073685,-3.99879 54.08276,-3.998185 C52.56784,-3.89957 51.100715,-3.65394 49.76064,-3.23165 C49.750355,-3.228625 49.740675,-3.2256 49.730995,-3.222575 C49.740675,-3.2256 49.750355,-3.228625 49.76064,-3.23165 Z" id="Fill-38" fill="#DFE1DE" transform="translate(57.119557, 39.699755) rotate(-229.000000) translate(-57.119557, -39.699755) "></path>
            <path d="M21.347624,14.2411707 L21.5495354,14.0116647 L21.5495354,14.0116647 L21.7998124,13.73482 L21.7998124,13.73482 L22.2868426,13.2667732 L21.6570263,14.1766508 L21.4203685,14.5945977 C21.244254,14.9032442 21.0762389,15.2173282 20.9171767,15.5367899 C20.8090374,15.4131254 20.6951622,15.2932927 20.5764643,15.1780858 L20.5654104,15.191724 C20.8172281,14.8679204 21.078912,14.5502884 21.347624,14.2411707 Z M17.6997178,21.2364022 C18.1932728,21.3584176 18.7124574,21.3808643 19.2094719,21.2886446 C19.186859,21.5110806 19.1686331,21.7349252 19.1564414,21.9592056 C19.0019497,24.5640876 19.3554394,27.2642455 20.3875306,29.7767189 C20.6303238,30.3725596 20.9066607,30.9574778 21.2153895,31.5272656 C20.273361,31.1797328 19.2199239,31.1217411 18.2816564,31.4596672 C18.3460156,31.6318506 18.4049165,31.8057022 18.4755876,31.9761577 C18.3945312,31.7798401 18.3181393,31.5827675 18.2454986,31.384146 C17.3909081,29.0428058 17.1019238,26.5598497 17.2444984,24.1586444 C17.3777319,21.8078383 18.0745416,19.5316956 19.1349091,17.4810043 C19.2342249,17.2883699 19.3367368,17.0985139 19.4427821,16.9101263 C18.6854236,18.2590532 18.0844758,19.7166905 17.6997178,21.2364022 Z M25.1706298,36.4581439 C27.3129937,38.3204724 29.9150787,39.6124546 32.4956963,40.3398635 C33.1425793,40.5326376 33.7818495,40.6594732 34.4329943,40.8150686 C35.0743685,40.9413282 35.7107948,41.0336263 36.3554011,41.1386465 C36.9878732,41.2050616 37.6193308,41.2569669 38.2539248,41.3107971 L40.1199378,41.3737215 C40.7937072,41.3806413 41.4606455,41.3695985 42.1200186,41.3423598 C42.0005044,41.7122327 41.9138625,42.0922435 41.8650348,42.4794735 C41.8255453,42.7978642 41.8194234,43.121212 41.8342425,43.4435243 C40.6490891,43.5379771 39.4409626,43.5860058 38.2075979,43.5736169 L36.3419819,43.5102359 C35.7069909,43.4568623 35.0759302,43.4045004 34.4434581,43.3380853 L33.1611448,43.1313108 C32.9479079,43.0951099 32.7345781,43.0568984 32.5206544,43.014964 L31.5507545,42.7909039 C31.2287331,42.7155918 30.9071948,42.6356894 30.5837533,42.5393023 C28.0031357,41.8118934 25.4010507,40.5199112 23.2586868,38.6575827 C23.4842469,38.8536591 23.7176856,39.0397499 23.9531088,39.2235578 C24.4573837,38.3520492 24.7336186,37.291928 24.6479038,36.1336096 L24.6332095,35.972534 L24.6332095,35.972534 C24.8085854,36.1378121 24.9879901,36.2993776 25.1706298,36.4581439 Z M53.9096575,39.4942967 C55.6391306,39.0826038 57.3203472,38.6554161 58.957005,38.2472115 C58.8956217,38.8167206 58.9421603,39.3902618 59.0657719,39.9498367 C57.1767596,40.4053493 55.2285374,40.9084824 53.2142614,41.4004009 L52.0968387,41.6700792 C52.1286445,41.0884865 52.0771221,40.5050015 51.9282423,39.9459071 C52.5947424,39.799809 53.25485,39.6481541 53.9096575,39.4942967 Z M76.3144471,36.1800609 C77.9496943,36.3894907 79.599182,36.7780393 81.2068471,37.2921618 C81.7895554,37.4748427 82.3674231,37.6741582 82.9387431,37.8902276 L82.7746767,38.0706649 L82.7746767,38.0706649 C82.6730663,38.1875543 82.5764784,38.3088098 82.4853698,38.4348283 C82.0750929,39.0008595 81.7868625,39.6441252 81.6131283,40.3179806 C80.8520537,40.0131152 80.0771884,39.7379466 79.2945072,39.4920572 C78.18211,39.1367109 77.0494162,38.8406779 75.9157224,38.6223356 C75.9772171,37.7539143 75.8883917,36.8822814 75.6152785,36.098154 C75.8464287,36.1227306 76.079465,36.1497484 76.3144471,36.1800609 Z M93.5637353,44.9114809 C94.5624574,46.0329727 95.3832603,47.2226557 96.000076,48.4450431 C96.6222903,49.6649088 97.0725332,50.9092364 97.3006294,52.2025478 C97.5943311,54.0170347 97.5640852,55.7984245 97.129133,57.599966 C96.7235117,57.2329354 96.1817074,56.764357 95.5744808,56.3046418 C95.5547894,55.6734735 95.4916074,55.0397714 95.3882895,54.4024432 C95.1597964,53.1095884 94.7103473,51.8643476 94.088133,50.6444819 C93.4713173,49.4220945 92.6505145,48.2324115 91.6513954,47.1113763 C91.5197905,46.9649085 91.3851684,46.8182229 91.2481051,46.6734234 C91.830196,45.841502 92.3004321,44.8634472 92.5985566,43.901716 C92.9351955,44.2328301 93.2568292,44.5701396 93.5637353,44.9114809 Z" id="Shape" fill="#67915E"></path>
            <path d="M20.9171767,15.5367899 C20.0278891,17.3233577 19.4163006,19.2727656 19.2094719,21.2886446 C18.7124574,21.3808643 18.1932728,21.3584176 17.6997178,21.2364022 C18.0417249,19.8855473 18.5545487,18.583739 19.1962043,17.3637309 L19.5080286,16.7944931 L19.5080286,16.7944931 L19.7446864,16.3765462 L20.5654104,15.191724 L20.5764643,15.1780858 C20.6951622,15.2932927 20.8090374,15.4131254 20.9171767,15.5367899 Z M21.2153895,31.5272656 C22.0954923,33.1540826 23.2404268,34.6616024 24.6332095,35.972534 L24.6479038,36.1336096 L24.6479038,36.1336096 C24.7336186,37.291928 24.4573837,38.3520492 23.9531088,39.2235578 L23.6021991,38.9451709 L23.6021991,38.9451709 L23.2335739,38.6357523 L23.2335739,38.6357523 C21.098059,36.7793776 19.495291,34.4770609 18.4755876,31.9761577 C18.4049165,31.8057022 18.3460156,31.6318506 18.2816564,31.4596672 C19.2199239,31.1217411 20.273361,31.1797328 21.2153895,31.5272656 Z M51.9282423,39.9459071 C52.0771221,40.5050015 52.1286445,41.0884865 52.0968387,41.6700792 L51.9977145,41.6937355 C48.7667288,42.4531503 45.4025053,43.1592707 41.8342425,43.4435243 C41.8194234,43.121212 41.8255453,42.7978642 41.8650348,42.4794735 C41.9138625,42.0922435 42.0005044,41.7122327 42.1200186,41.3423598 C45.5619429,41.2015977 48.8112995,40.6313052 51.9282423,39.9459071 Z M65.9368394,36.6767311 C67.8120782,36.338041 69.6206977,36.0953532 71.3576246,35.9987684 C72.8777377,35.9109121 74.2215489,35.9511719 75.6152785,36.098154 C75.8883917,36.8822814 75.9772171,37.7539143 75.9157224,38.6223356 C75.4110955,38.5259673 74.9057762,38.4442282 74.4025041,38.3794997 C72.7499479,38.1678495 71.2178204,38.0961583 69.4452847,38.1986638 C67.9564902,38.2814508 66.4153152,38.4712433 64.8244547,38.7370661 L63.8101321,38.915739 L63.8101321,38.915739 L63.5701995,38.9602844 L63.5701995,38.9602844 C62.105794,39.2376541 60.6055108,39.5784284 59.0657719,39.9498367 C58.9421603,39.3902618 58.8956217,38.8167206 58.957005,38.2472115 C61.3763932,37.6440411 63.6983074,37.0819942 65.9368394,36.6767311 Z M82.9387431,37.8902276 C83.947868,38.2712357 84.9362188,38.704729 85.8895634,39.1895583 C87.3788667,39.9551122 88.8062929,40.804758 90.1018178,41.7674076 C91.0017963,42.4335102 91.8372328,43.1517277 92.5985566,43.901716 C92.3004321,44.8634472 91.830196,45.841502 91.2481051,46.6734234 C90.4832928,45.8656625 89.6345734,45.0880293 88.7111629,44.3641847 L88.1894779,43.967303 L88.1894779,43.967303 C86.8943499,43.0041968 85.4665268,42.1550076 83.9776205,41.3889971 C83.2092674,40.998443 82.4188273,40.6415966 81.6131283,40.3179806 C81.7868625,39.6441252 82.0750929,39.0008595 82.4853698,38.4348283 C82.5764784,38.3088098 82.6730663,38.1875543 82.7746767,38.0706649 L82.9387431,37.8902276 L82.9387431,37.8902276 Z M97.129133,57.599966 C96.9282499,58.4313903 96.6414394,59.2666789 96.2601274,60.1120065 C95.681252,61.4437355 94.8732915,62.7558895 93.9126387,64.0002424 C93.6635008,64.3255739 93.4015394,64.6453696 93.1288583,64.9590533 C92.8033874,65.3334647 92.4627502,65.6995021 92.1103608,66.0569267 C92.9085248,65.0056053 93.5970336,63.9074484 94.1296161,62.7909731 L94.4215812,62.1467829 L94.4215812,62.1467829 C95.2857684,60.1668462 95.6346145,58.243959 95.5744808,56.3046418 C96.1817074,56.764357 96.7235117,57.2329354 97.129133,57.599966 Z" id="Shape" fill="#D9B754"></path>
            <path d="M22.897207,68.1630749 C23.505232,68.6942649 24.080587,69.0427449 24.625087,69.2538899 C24.623272,69.2544949 24.622062,69.2544949 24.620247,69.2550999 C24.076957,69.0439549 23.503417,68.6924499 22.897207,68.1630749 Z" id="Fill-35" fill="#DFE1DE" transform="translate(23.761147, 68.709087) rotate(-229.000000) translate(-23.761147, -68.709087) "></path>
            <path d="M27.5484585,119.627988 C28.6489535,119.353318 29.3834235,118.367168 29.3846335,117.283008 C29.3834235,118.367168 28.6489535,119.353318 27.5484585,119.627988 C27.5176035,119.635248 27.4873535,119.642508 27.4564985,119.649163 C27.4873535,119.642508 27.5176035,119.635248 27.5484585,119.627988 Z" id="Fill-41" fill="#DFE1DE" transform="translate(28.420566, 118.466085) rotate(-229.000000) translate(-28.420566, -118.466085) "></path>
            <path d="M29.7699697,115.783651 C29.7077317,116.721168 30.1963331,117.649328 31.0861745,118.103004 C34.9077718,120.049466 40.8276928,128.761713 45.3604829,129.760014 C47.6099971,130.266135 50.0101666,130.510418 52.4100417,130.400925 C53.3825175,130.362085 54.3610576,130.262782 55.3380789,130.098829 L55.218491,130.222336 L55.218491,130.222336 L55.0904006,130.365307 L55.0904006,130.365307 C54.6385524,130.888788 54.2892807,131.505445 54.1111984,132.172314 C52.9075089,132.412584 51.6985436,132.552873 50.4980987,132.600364 C48.497872,132.691989 46.4977166,132.537618 44.5849874,132.190458 L43.4485399,131.959453 C45.3381517,132.384387 47.3352563,132.610969 49.3487007,132.611265 C49.2997047,132.438007 49.2390968,132.264275 49.160565,132.091796 C48.5821308,130.823412 47.1690233,130.01908 45.7760989,130.067594 C44.6398855,130.107592 43.5585012,130.680241 42.8119028,131.539104 C42.7499839,131.610333 42.6903481,131.683547 42.6329952,131.758746 C42.9052603,131.825476 43.1732786,131.898936 43.4485399,131.959453 C38.9157498,130.961151 32.9958289,122.248905 29.1742315,120.302443 C28.9928331,120.21049 28.8275888,120.098109 28.6809607,119.969845 C27.8635286,119.257659 27.6011275,118.056375 28.1158211,117.045621 L28.1648149,116.95514 L28.1648149,116.95514 C28.2452815,116.811854 28.3385926,116.680535 28.4421876,116.561363 C28.7926642,116.158186 29.2629338,115.89201 29.7699697,115.783651 Z M59.6119089,128.939284 C61.4187483,128.235713 63.1557347,127.262995 64.7268478,125.96652 C64.7859073,126.013851 64.8465545,126.059357 64.9087296,126.102182 L64.6709383,126.381262 L64.6709383,126.381262 C64.5193165,126.555683 64.3641016,126.727782 64.2047772,126.896309 C62.2998422,128.852532 60.0578901,130.22079 57.6999659,131.138722 C58.3700207,130.877874 59.0290724,130.576198 59.6749186,130.238993 L59.4839645,130.096246 L59.4839645,130.096246 C59.1090067,129.830423 58.7059039,129.573 58.2807615,129.399028 C58.7265176,129.260647 59.1708024,129.107359 59.6119089,128.939284 Z" id="Shape" fill="#67915E"></path>
            <path d="M45.7760989,130.067594 C47.1690233,130.01908 48.5821308,130.823412 49.160565,132.091796 C49.2390968,132.264275 49.2997047,132.438007 49.3487007,132.611265 C47.3352563,132.610969 45.3381517,132.384387 43.4485399,131.959453 C43.1732786,131.898936 42.9052603,131.825476 42.6329952,131.758746 C42.6903481,131.683547 42.7499839,131.610333 42.8119028,131.539104 C43.5585012,130.680241 44.6398855,130.107592 45.7760989,130.067594 Z M55.3380789,130.098829 C56.3235757,129.933427 57.3069778,129.701271 58.2807615,129.399028 C58.7059039,129.573 59.1090067,129.830423 59.4839645,130.096246 L59.6749186,130.238993 L59.6749186,130.238993 C59.0290724,130.576198 58.3700207,130.877874 57.6999659,131.138722 C56.5191566,131.58967 55.3178453,131.931409 54.1111984,132.172314 C54.2670205,131.588804 54.5539093,131.043737 54.9258998,130.565896 L55.1042927,130.349326 L55.1042927,130.349326 C55.1785159,130.263942 55.2566695,130.17957 55.3380789,130.098829 Z M65.6588648,125.140577 C65.4189574,125.469123 65.1690646,125.78979 64.9087296,126.102182 C64.8465545,126.059357 64.7859073,126.013851 64.7268478,125.96652 C65.0443174,125.704596 65.355314,125.429831 65.6588648,125.140577 Z" id="Shape" fill="#D9B754"></path>
            <path d="M33.4135497,128.162443 C31.1278597,129.376678 28.4156447,130.172858 25.5437097,130.173463 C28.4156447,130.172858 31.1278597,129.376678 33.4135497,128.162443 Z M43.5466947,100.175143 C43.5249147,100.049908 43.5031347,99.9252782 43.4807497,99.8012532 C43.9302647,102.302323 44.2563597,104.929233 44.2569647,107.652338 C44.2563597,105.064148 43.9617247,102.563683 43.5466947,100.175143 Z M43.1461847,98.1610982 C42.7716897,96.4428982 42.3306447,94.7622082 41.8290997,93.1359682 C41.2192597,91.1001432 40.5374247,89.1290532 39.8344147,87.2075732 C40.5374247,89.1290532 41.2192597,91.1001432 41.8290997,93.1359682 C42.3627097,94.8650582 42.8279547,96.6564632 43.2163647,98.4884032 C43.1933747,98.3788982 43.1697797,98.2699982 43.1461847,98.1610982 Z M36.5553147,57.2213532 C36.5613647,57.2177232 36.5680197,57.2140932 36.5740697,57.2110682 C36.5680197,57.2140932 36.5613647,57.2177232 36.5553147,57.2213532 C34.6217347,58.2897832 33.5230547,59.7260532 33.0795897,61.6759682 C33.5230547,59.7260532 34.6217347,58.2897832 36.5553147,57.2213532 Z M39.6777197,56.1952732 C39.6831647,56.1958782 39.6892147,56.1964832 39.6946597,56.1976932 C38.6086847,56.3586232 37.5469097,56.6804832 36.6230747,57.1838432 C37.5426747,56.6829032 38.5965847,56.3568082 39.6777197,56.1952732 Z" id="Fill-44" fill="#DFE1DE" transform="translate(34.900337, 93.184368) rotate(-229.000000) translate(-34.900337, -93.184368) "></path>
            <path d="M11.4888852,64.1117214 C10.7024584,65.4228965 10.1184283,66.8109434 9.71764118,68.2010857 C10.179473,68.2987311 10.6509442,68.3502449 11.1219113,68.3516192 C10.7460492,70.8939313 10.8813081,73.4292348 11.4777369,75.8932654 C11.8524907,77.3765918 12.3510138,78.6612854 12.9613862,79.9325827 C13.5694338,81.1890331 14.2801095,82.3615439 15.0559569,83.4480171 C16.294455,85.1651318 17.6712292,86.6641589 19.1285656,87.9967361 C19.0178232,88.1056872 18.9113096,88.2199175 18.8093023,88.3372636 L18.6474412,88.5308408 C18.1729358,89.1228055 17.8115447,89.7930582 17.5633218,90.5055721 C18.9870365,91.7706844 20.4824578,92.8832687 21.9973932,93.8878666 L22.7072478,94.3505818 C21.0497718,93.2912861 19.405704,92.1121021 17.8427181,90.7540664 C16.4528931,89.5467043 15.1273144,88.1971946 13.9133796,86.6657672 C13.6518112,86.3349787 13.3948267,85.9961504 13.143617,85.6479125 C12.3681665,84.5609828 11.6570939,83.3889285 11.0486494,82.1329347 C10.4386739,80.8611808 9.94015083,79.5764872 9.5657939,78.0927042 C8.90617447,75.36678 8.81021256,72.552817 9.34699593,69.7389419 L9.4774693,69.1145935 C9.86623782,67.4334988 10.5196,65.7312336 11.4701123,64.1408455 L11.4888852,64.1117214 Z M28.82035,97.7219242 C29.1979645,96.8421187 29.3765853,95.8149829 29.4030532,94.868817 C30.3674548,95.3584482 31.3361389,95.8173319 32.3039248,96.2449728 C34.3517366,97.1721711 36.398737,97.989642 38.4177418,98.7563227 C39.6848456,99.2389387 40.9412478,99.7034339 42.1847069,100.160686 C42.0089179,100.394262 41.8505991,100.644628 41.6976192,100.891619 C41.3713987,101.420895 41.0509588,101.977642 40.7965409,102.552502 L40.9391672,102.60514 C39.4791782,102.068683 37.9993583,101.524607 36.5054019,100.956218 L36.1740356,100.829294 C34.2626602,100.099258 32.3277357,99.3206941 30.391188,98.4453249 C29.1460824,97.894614 27.9000792,97.2918184 26.6617566,96.6402905 L27.2741164,96.9578854 C27.7885977,97.2212426 28.3041967,97.476052 28.82035,97.7219242 Z M50.143687,103.184989 C52.0082831,103.951318 53.8151057,104.76843 55.56237,105.6476 C57.2731481,106.50788 58.8279805,107.437816 60.0668479,108.479476 C62.5673948,110.594649 63.5073222,112.83782 62.8685462,115.827361 C62.5657347,117.274014 61.8183525,118.698149 60.8501286,119.889425 L60.7447281,120.013441 C60.4283863,120.377351 60.0707356,120.726995 59.6821167,121.056934 C60.204229,120.23745 60.6140994,119.348898 60.8569345,118.443301 L60.9562063,118.027256 C61.4183945,115.867012 61.0552267,114.09555 59.8745464,112.481603 C60.070364,112.000899 60.2007714,111.480168 60.2341498,110.927198 C60.3145306,109.617462 59.6969633,108.286201 58.6462891,107.501125 C57.6086772,106.724999 56.1892112,106.50434 54.9522969,106.88888 C54.3944766,107.062115 53.8818535,107.360414 53.4433217,107.74316 C52.0102995,107.028134 50.5377439,106.354897 49.0259713,105.715708 C49.1717123,105.132152 49.2288222,104.526061 49.17023,103.9212 C49.1290747,103.498235 49.0352401,103.082385 48.8957544,102.682164 C49.3138687,102.847622 49.7299984,103.015363 50.143687,103.184989 Z" id="Shape" fill="#67915E"></path>
            <path d="M13.6342431,61.295134 C13.78813,61.1347065 13.9464634,60.9765412 14.1093032,60.8214915 L14.1565779,60.7800186 C12.7613525,62.7151798 11.8479682,64.8808155 11.3670177,67.0119241 C11.2695484,67.4578763 11.1876215,67.9053148 11.1219113,68.3516192 C10.6509442,68.3502449 10.179473,68.2987311 9.71764118,68.2010857 C10.3589006,65.976858 11.469262,63.7579947 13.1271789,61.8507794 C13.2907082,61.6626605 13.4599942,61.4771409 13.6342431,61.295134 Z M19.1285656,87.9967361 C21.3609748,90.0367422 23.7829431,91.6843947 26.1891966,93.1195817 C27.2527069,93.738655 28.3253225,94.3223552 29.4030532,94.868817 C29.3765853,95.8149829 29.1979645,96.8421187 28.82035,97.7219242 C28.04612,97.353116 27.2731373,96.9641989 26.5033031,96.5564873 L25.5880799,96.0619967 L25.5880799,96.0619967 L25.4072037,95.9621804 C25.0292973,95.752313 24.6527995,95.5380587 24.2772536,95.3190205 L23.9518115,95.1234959 L23.9518115,95.1234959 C21.7774181,93.808897 19.5971999,92.3128754 17.5633218,90.5055721 C17.8115447,89.7930582 18.1729358,89.1228055 18.6474412,88.5308408 L18.8093023,88.3372636 L18.8093023,88.3372636 C18.9113096,88.2199175 19.0178232,88.1056872 19.1285656,87.9967361 Z M48.8957544,102.682164 C49.0352401,103.082385 49.1290747,103.498235 49.17023,103.9212 C49.2288222,104.526061 49.1717123,105.132152 49.0259713,105.715708 L48.231744,105.384428 L48.231744,105.384428 C46.3439269,104.611061 44.4060266,103.882915 42.4290523,103.153328 L40.7965409,102.552502 L40.7965409,102.552502 C41.0509588,101.977642 41.3713987,101.420895 41.6976192,100.891619 C41.8505991,100.644628 42.0089179,100.394262 42.1847069,100.160686 L44.9073844,101.162979 C46.2567682,101.662917 47.5874218,102.164349 48.8957544,102.682164 Z M54.9522969,106.88888 C56.1892112,106.50434 57.6086772,106.724999 58.6462891,107.501125 C59.6969633,108.286201 60.3145306,109.617462 60.2341498,110.927198 C60.2007714,111.480168 60.070364,112.000899 59.8745464,112.481603 C59.5086757,111.981853 59.0649536,111.497374 58.543356,111.020724 L58.154508,110.679371 L58.154508,110.679371 C57.0395273,109.741878 55.6689365,108.89451 54.1588109,108.107268 L53.4433217,107.74316 L53.4433217,107.74316 C53.8818535,107.360414 54.3944766,107.062115 54.9522969,106.88888 Z" id="Shape" fill="#D9B754"></path>
        </g>
        <g id="Array" transform="translate(6.000000, 114.000000)">
            <rect id="Rectangle" stroke="#2D2D2D" stroke-width="5" fill="#FFFFFF" stroke-linecap="round" stroke-linejoin="round" x="-2.5" y="-2.5" width="236" height="17.5865385" rx="4"></rect>
            <rect id="Rectangle-2" fill="#3182BD" x="71" y="0" width="12" height="13"></rect>
            <rect id="Rectangle-2" fill="#6BAED6" x="59" y="0" width="12" height="13"></rect>
            <rect id="Rectangle-2" fill="#6BAED6" x="83" y="0" width="12" height="13"></rect>
            <rect id="Rectangle-2" fill="#9ECAE1" x="47" y="0" width="12" height="13"></rect>
            <rect id="Rectangle-2" fill="#9ECAE1" x="95" y="0" width="12" height="13"></rect>
            <rect id="Rectangle-2" fill="#C6DBEF" x="107" y="0" width="12" height="13"></rect>
            <rect id="Rectangle-2" fill="#C6DBEF" x="35" y="0" width="12" height="13"></rect>
            <rect id="Rectangle" stroke="#2D2D2D" stroke-width="5" stroke-linecap="round" stroke-linejoin="round" x="-2.5" y="-2.5" width="236" height="17.5865385" rx="4"></rect>
        </g>
        <g id="Head" transform="translate(94.000000, 135.000000) rotate(150.000000) translate(-94.000000, -135.000000) translate(87.000000, 124.000000)">
            <g id="Fill-52">
                <use fill="black" fill-opacity="1" filter="url(#filter-2)" xlink:href="#path-1"></use>
                <use fill="#DF7B74" fill-rule="evenodd" xlink:href="#path-1"></use>
            </g>
            <path d="M9.0969933,15.1456357 C11.4941243,14.6072462 14.0616233,5.64761966 13.6802918,3.94593616 C12.6906933,-0.46233584 8.8647338,-0.32723934 5.7814723,0.36488066 C2.6982108,1.05633516 -0.818956702,2.56835116 0.169976298,6.97662316 C0.551307798,8.67830666 6.6991968,15.6833597 9.0969933,15.1456357" id="Fill-53" fill="#73A067"></path>
            <path d="M3.7097708,8.67897216 C3.6265833,8.30629216 3.8608393,7.93627416 4.2335193,7.85242116 C4.6068648,7.76923366 4.9768828,8.00348966 5.0607358,8.37616966 C5.1439233,8.74884966 4.9096673,9.11886766 4.5363218,9.20272066 C4.1636418,9.28590816 3.7936238,9.05165216 3.7097708,8.67897216" id="Fill-50" fill="#FFFFFF"></path>
            <path d="M11.2059628,6.99725366 C11.1221098,6.62457366 10.7520918,6.39031766 10.3794118,6.47350516 C10.0060663,6.55735816 9.7718103,6.92737616 9.8556633,7.30072166 C9.9395163,7.67340166 10.3088688,7.90765766 10.6822143,7.82380466 C11.0548943,7.74061716 11.2891503,7.36993366 11.2059628,6.99725366" id="Fill-51" fill="#FFFFFF"></path>
        </g>
        <g id="Group-3" transform="translate(120.107425, 89.558066)">
            <mask id="mask-4" fill="white">
                <use xlink:href="#path-3"></use>
            </mask>
            <g id="Fill-28"></g>
            <path d="M2.73512798,-65.7694783 C2.46349461,-64.6067563 1.94755603,-63.4359564 1.18614901,-62.4576966 C0.432107252,-61.4722327 -0.529767734,-60.6746501 -1.55157912,-60.07186 C-3.46360918,-58.9387221 -5.55882331,-58.3684475 -7.56629532,-57.9769232 L-7.99502617,-57.8956211 C-12.1679791,-57.096497 -11.03698,-57.0085351 -14.9412768,-55.8692547 C-18.8242924,-54.7138798 -22.5037403,-53.1065861 -25.3181955,-50.6527729 C-25.5551788,-50.4520843 -25.7758214,-50.2357658 -25.9972288,-50.0212997 L-26.3320518,-49.7031753 C-26.5119619,-49.546932 -26.648877,-49.382974 -26.7798174,-49.2194338 L-27.1886585,-48.7371277 C-27.4346181,-48.3970088 -27.6715651,-48.0506586 -27.892731,-47.6994081 L-28.3315895,-46.8736429 L-28.4458958,-46.5826126 C-29.0898866,-45.0597831 -29.3518525,-43.3908432 -29.1911551,-41.7857663 C-29.0441141,-40.1797344 -28.4899939,-38.6519143 -27.6672516,-37.3731674 C-26.820751,-36.1042298 -25.6790888,-35.078931 -24.4563981,-34.409664 C-23.2271958,-33.7331331 -21.8444492,-33.3752493 -20.3095883,-33.2154072 C-19.9296043,-33.1720767 -19.5190398,-33.1759132 -19.1318724,-33.1463791 C-18.7285121,-33.1428504 -18.3125907,-33.162071 -17.9078217,-33.1629292 L-16.6452522,-33.2357782 L-15.3496252,-33.3816982 C-11.8572618,-33.8866454 -8.13194978,-34.9177777 -4.32441615,-36.165222 C-0.489987816,-37.4205508 3.54128399,-38.9456642 8.00927089,-40.1681038 C10.2415573,-40.7792042 12.5896797,-41.2976263 15.0485525,-41.6243802 C17.4689962,-41.9548795 20.1720065,-42.0958619 22.7201237,-41.9129567 C27.847577,-41.5729159 32.7694406,-40.2909088 37.4042312,-38.2018983 C39.7260418,-37.1647778 41.9571791,-35.8850236 44.0864639,-34.3875846 C46.210926,-32.88552 48.2463981,-31.1658123 50.0532346,-29.1342144 C51.8664606,-27.1154998 53.4889371,-24.8257112 54.778936,-22.2862438 C56.0619873,-19.748006 56.983443,-16.9533358 57.4397,-14.0836803 C57.8809339,-11.1958204 57.9127882,-8.34237405 57.4466105,-5.42965777 C56.999622,-2.54916012 56.0855317,0.170591718 54.8857116,2.65559024 C53.6927613,5.15297371 52.1933374,7.407191 50.5161085,9.44912725 C48.8406075,11.4973753 46.9697926,13.3221302 44.9523768,14.9392836 C40.9223887,18.1753958 36.3143616,20.6332648 31.2079122,22.065455 C28.6481832,22.7590618 25.9700551,23.2190797 23.1813565,23.244691 C20.4040521,23.2737941 17.7619831,22.9370709 15.2258702,22.3493551 C10.1608277,21.1601269 5.75080412,19.0228071 1.76866954,16.7307726 C-1.9255101,14.5902061 -5.20725417,12.2965613 -8.37177702,10.2104777 L-9.16063647,9.69348964 C-12.5623842,7.46507975 -15.8510091,5.49292761 -19.1411432,4.143134 C-19.9630411,3.80864305 -20.7826113,3.5074392 -21.603068,3.24875291 C-22.4245155,3.00042817 -23.2566798,2.76443161 -24.0012934,2.62137593 C-25.52792,2.3155799 -27.0183835,2.24483481 -28.2204373,2.410371 C-29.4330913,2.57150231 -30.2886606,2.94524353 -30.8919629,3.44929579 C-31.4953458,3.94606333 -32.0592532,4.78657663 -32.3848041,5.90804032 C-32.6972747,7.02644513 -32.7517697,8.35066722 -32.5247178,9.56771742 C-32.4162695,10.1373583 -32.1922361,10.8451526 -31.9187882,11.4868803 C-31.640058,12.1428192 -31.2896117,12.800176 -30.8718572,13.4511107 C-30.0358317,14.7542306 -28.9147948,16.0181226 -27.6303305,17.2028292 C-27.1110584,17.6766712 -26.5791862,18.1383794 -26.0014516,18.5832123 L-24.4474924,19.7411627 L-23.279072,20.5235799 C-21.7015949,21.5565708 -20.0413954,22.5275985 -18.2768399,23.4209984 C-16.527606,24.3283351 -14.6976342,25.1759917 -12.8143893,26.0066289 C-9.06046347,27.6722125 -5.09503286,29.271545 -1.12044726,31.1489861 C0.868970357,32.0935619 2.859095,33.115709 4.8202565,34.2449483 C6.8033765,35.406102 8.83956305,36.7496632 10.7281617,38.5461121 C12.6015135,40.3269023 14.3554818,42.6756822 15.2260309,45.5150811 C16.1363011,48.3705716 15.9857207,51.3564226 15.2197901,53.9748991 C14.4541011,56.6152298 13.040876,58.9491883 11.2047772,60.8963093 C9.29984223,62.8525322 7.05789013,64.2207898 4.69996593,65.1387224 C2.34084806,66.0395847 -0.0993045524,66.5052617 -2.50190132,66.6003641 C-4.90217334,66.7103135 -7.30234276,66.4660303 -9.55146009,65.9594531 C-12.5503589,65.2989756 -16.6703822,59.0647644 -19.6034724,57.0021134 L-20.4945305,56.3794553 C-21.6698152,55.5658004 -22.7911889,54.8293874 -23.8257685,54.3024429 C-25.0170673,53.6957363 -25.4916794,52.237833 -24.8841789,51.045621 C-24.3327419,49.9632148 -23.0791515,49.472921 -21.9603672,49.8469848 L-21.7855882,49.9137928 C-17.9707164,51.5064996 -12.2904972,59.7161773 -8.50562923,60.2358697 C-6.61056458,60.4996059 -4.77073302,60.5622169 -2.9633789,60.3504944 C-1.16034912,60.1566569 0.566512859,59.6769603 2.1025255,58.9640237 C3.62766031,58.2488459 4.97966091,57.2348628 5.93778872,56.0893207 C6.90640954,54.8975873 7.65339481,53.4739091 7.95620626,52.0272562 C8.59537918,49.0372586 7.65505485,46.7945439 5.15450801,44.6793709 C3.91564061,43.6377118 2.36120513,42.7073189 0.650427005,41.847039 C-1.09683733,40.9678684 -2.9040568,40.151213 -4.76825601,39.3844283 C-8.50945716,37.8517542 -12.4492234,36.4967837 -16.4945981,34.9562181 C-18.5132059,34.1890808 -20.5602064,33.3716099 -22.608812,32.4453249 C-24.6572954,31.5391869 -26.7078852,30.4925353 -28.7227464,29.3190205 C-32.7001893,26.946893 -36.7208374,23.9937008 -39.856383,19.6479125 C-40.6318335,18.5609828 -41.3429061,17.3889285 -41.9513506,16.1329347 C-42.5613261,14.8611808 -43.0598492,13.5764872 -43.4342061,12.0927042 C-44.1350517,9.19640978 -44.1995809,6.20072776 -43.5449253,3.21136288 C-42.8758556,0.244147652 -41.3846748,-2.79642242 -38.8906968,-5.17850853 C-37.6465667,-6.3736401 -36.2339937,-7.31252271 -34.7533401,-8.01987279 C-33.2751875,-8.7261903 -31.7576337,-9.18181606 -30.2826487,-9.46121204 C-27.3206879,-10.0079772 -24.5365916,-9.89089037 -21.9138255,-9.48677543 C-20.5792573,-9.27819118 -19.3669479,-8.98429465 -18.158545,-8.6665385 C-16.9535741,-8.33653473 -15.7784287,-7.95469943 -14.6307093,-7.53578109 C-10.0423893,-5.84148857 -5.99925821,-3.55414827 -2.26427571,-1.3070137 C1.47533247,0.944943547 4.93806162,3.19910829 8.31069875,4.98055386 C11.6899073,6.77011679 15.0453919,8.15908277 18.2294387,8.80741519 C19.810177,9.12658114 21.3875704,9.25686066 22.8269606,9.19823543 C24.2580157,9.14919878 25.7646165,8.84357672 27.2581137,8.39349276 C30.2502443,7.46251775 33.2026797,5.80442558 35.6746655,3.67818195 C36.9186787,2.62243293 38.0446685,1.44885669 39.0002988,0.200137771 C39.9605547,-1.04375848 40.7689121,-2.35636913 41.3481844,-3.68855466 C42.5555763,-6.36577604 42.8172586,-8.94641901 42.3882895,-11.5975568 C42.1597964,-12.8904116 41.7103473,-14.1356524 41.088133,-15.3555181 C40.4713173,-16.5779055 39.6505145,-17.7675885 38.6513954,-18.8886237 C37.6496174,-20.0047558 36.4873843,-21.0727871 35.1894779,-22.032697 C33.8943499,-22.9958032 32.4665268,-23.8449924 30.9776205,-24.6110029 C29.4840108,-25.3706807 27.9058431,-26.0026538 26.2945072,-26.5079428 C24.6868421,-27.0220653 23.0373544,-27.4106139 21.4025041,-27.6205003 C19.7499479,-27.8321505 18.2178204,-27.9038417 16.4452847,-27.8013362 C14.7083578,-27.7047514 12.9001352,-27.4625202 11.0248964,-27.1238301 C7.27203729,-26.4437103 3.28264275,-25.3254965 -1.00228546,-24.3062645 C-5.30704442,-23.2946515 -9.84824459,-22.3771467 -14.7924021,-22.4263831 L-16.6580181,-22.4897641 C-17.2930091,-22.5431377 -17.9240698,-22.5954996 -18.5565419,-22.6619147 L-19.8388552,-22.8686892 C-20.0520921,-22.9048901 -20.2654219,-22.9431016 -20.4793456,-22.985036 L-21.4492455,-23.2090961 C-21.7712669,-23.2844082 -22.0928052,-23.3643106 -22.4162467,-23.4606977 C-24.9968643,-24.1881066 -27.5989493,-25.4800888 -29.7413132,-27.3424173 C-31.8895323,-29.202621 -33.5010354,-31.5133326 -34.5244124,-34.0238423 C-35.5569005,-36.5358591 -35.9099932,-39.2364736 -35.7559582,-41.8417525 C-35.6073635,-44.457372 -34.7602538,-46.9820333 -33.4919714,-49.2055069 L-33.2553136,-49.6234538 L-32.4345896,-50.808276 C-32.0435171,-51.3116395 -31.6281462,-51.7986907 -31.2001876,-52.26518 L-30.5146937,-52.9246463 C-30.3618504,-53.0734219 -30.2090947,-53.2179984 -30.055437,-53.3496772 L-28.8991902,-54.2784026 C-28.7440452,-54.3999409 -28.5872979,-54.5187799 -28.4272834,-54.6324629 C-26.5176141,-56.024229 -24.4297821,-57.0759435 -22.3161277,-57.8871667 C-20.4335303,-58.6085192 -18.5229867,-59.1434309 -16.616712,-59.5649469 L-13.5701327,-60.2101294 C-12.6507936,-60.3987605 -12.1591201,-60.4831886 -11.4562683,-60.5735227 L-8.46762481,-60.9253794 C-6.44786482,-61.1536701 -4.52730292,-61.574008 -2.8794406,-62.4229903 L-2.65578437,-62.5447967 C-0.880597453,-63.5642341 3.00162855,-66.867159 2.73512798,-65.7694783 Z" id="Fill-28" fill="#73A067" mask="url(#mask-4)"></path>
            <path d="M-31.2279346,-34.2269084 C-32.2954441,-34.7805177 -33.589751,-34.9468886 -34.7183436,-34.5403328 C-34.6539844,-34.3681494 -34.5950835,-34.1942978 -34.5244124,-34.0238423 C-33.5010354,-31.5133326 -31.8895323,-29.202621 -29.7413132,-27.3424173 C-29.5157531,-27.1463409 -29.2823144,-26.9602501 -29.0468912,-26.7764422 C-28.5426163,-27.6479508 -28.2663814,-28.708072 -28.3520962,-29.8663904 C-28.4866651,-31.6804261 -29.613529,-33.3894798 -31.2279346,-34.2269084 Z M-2.29653125,2.69635864 C-1.48189445,2.17881497 -0.384101485,1.31340524 0.470562391,0.362502973 C-0.425289148,-0.189386789 -1.33579068,-0.748400164 -2.26427571,-1.3070137 C-4.36924804,-2.57329033 -6.57698233,-3.84953491 -8.92110621,-5.02790029 C-9.56221813,-4.12623857 -10.0355461,-3.11880613 -10.2163008,-2.03019632 C-10.537157,-0.0933991559 -9.79500011,2.0812635 -8.12266352,3.10933647 C-6.37374054,4.18394415 -4.02974587,3.79660823 -2.29653125,2.69635864 Z M-17.1209674,-8.35699277 C-17.4662049,-8.46150469 -17.8083267,-8.57052292 -18.158545,-8.6665385 C-19.3669479,-8.98429465 -20.5792573,-9.27819118 -21.9138255,-9.48677543 C-23.8425203,-9.78375411 -25.858865,-9.92365053 -27.9689303,-9.76023316 C-27.9523566,-9.38829761 -27.891797,-9.01900901 -27.7525768,-8.66551316 C-27.2053469,-7.27915861 -25.8398843,-6.38958583 -24.4612926,-5.82127777 C-23.5052827,-5.42712093 -22.4653862,-5.13960841 -21.4435046,-5.29983609 C-20.157851,-5.50252379 -18.156614,-6.87882187 -17.1209674,-8.35699277 Z M10.8374276,18.8648129 C10.2362392,17.4370497 9.13639719,16.2919008 8.00436334,15.2257565 L7.74276562,14.9810329 C6.72856926,14.0368781 5.68390596,13.1047172 4.4729258,12.4312005 C3.26273948,11.7567707 1.85878651,11.3531969 0.486468366,11.5430756 C-0.929993824,11.7394719 -2.18169996,12.5993482 -3.0188824,13.7634502 C-1.48756068,14.7619302 0.0966401464,15.7622875 1.76866954,16.7307726 C4.66952821,18.4011165 7.80140019,19.9836893 11.2443706,21.1825635 C11.2790182,20.3717693 11.1201896,19.5354795 10.8374276,18.8648129 Z M-31.2341837,-48.9735674 C-31.4474019,-49.698414 -31.8902786,-50.3038499 -32.4235357,-50.8219142 L-32.4345896,-50.808276 L-33.2553136,-49.6234538 L-33.4919714,-49.2055069 C-34.2796745,-47.8244389 -34.9043955,-46.3265433 -35.3002822,-44.7635978 C-34.5117337,-44.5687223 -33.6590722,-44.6283462 -32.9346876,-45.001491 C-31.5463151,-45.7161112 -30.7923961,-47.4760593 -31.2341837,-48.9735674 Z M-29.1911551,-41.7857663 C-29.2227461,-42.1026174 -29.2334558,-42.4213574 -29.2322759,-42.7417866 C-29.5152848,-42.7168505 -29.7826082,-42.6638499 -30.0010158,-42.5675258 C-30.6474259,-42.281314 -31.1510405,-41.6272755 -31.1363391,-40.9202817 C-31.1262391,-40.4269594 -30.8819917,-39.9771175 -30.6126101,-39.5576462 L-30.5108221,-39.4017425 C-30.2273641,-38.9725639 -29.8899706,-38.5141359 -29.3875641,-38.4004586 C-29.0285151,-38.3192124 -28.661181,-38.4383869 -28.330736,-38.6128759 C-28.7799054,-39.5965412 -29.0890712,-40.6693328 -29.1911551,-41.7857663 Z M32.6520354,9.17119057 C33.004352,8.23011404 33.0286067,6.97018897 32.6849392,5.87622359 C30.9613282,6.95435942 29.117435,7.81490527 27.2581137,8.39349276 C25.7646165,8.84357672 24.2580157,9.14919878 22.8269606,9.19823543 C22.6572097,9.20538829 22.479795,9.20106941 22.3066091,9.20202979 C22.3210045,9.4814873 22.3537207,9.75923486 22.4127764,10.0334252 C22.6267338,11.0386843 23.1479149,12.0095949 23.9904962,12.5969441 C25.0408841,13.3288634 26.436324,13.3715168 27.6884221,13.1059912 C29.8430621,12.6478428 31.8785533,11.2339842 32.6520354,9.17119057 Z M-11.1657575,-22.5564757 C-7.89484992,-22.8170415 -4.79539208,-23.4320926 -1.81284866,-24.1177344 L-0.903161271,-24.3299208 C-0.857343301,-25.1710864 -0.985009668,-26.0155591 -1.3312656,-26.7847084 C-2.06563519,-28.4187142 -3.8174735,-29.6024733 -5.60401772,-29.4672537 C-6.96739755,-29.3641977 -8.19080623,-28.553473 -9.12624977,-27.555753 C-10.1706481,-26.4419166 -10.9437581,-25.0361384 -11.1349652,-23.5205265 C-11.1744547,-23.2021358 -11.1805766,-22.878788 -11.1657575,-22.5564757 Z M-12.4858231,-33.4494419 C-12.3868805,-33.6167484 -12.3007615,-33.7895908 -12.2101959,-33.9601711 C-13.2738492,-33.7288362 -14.3226405,-33.5302751 -15.3496252,-33.3816982 L-16.6452522,-33.2357782 L-17.9078217,-33.1629292 C-18.3121341,-33.1616741 -18.7285121,-33.1428504 -19.1318724,-33.1463791 C-19.5190398,-33.1759132 -19.9296043,-33.1720767 -20.3095883,-33.2154072 C-21.4038447,-33.3297251 -22.4172317,-33.5509051 -23.356235,-33.9093754 C-23.3598177,-33.1582137 -23.2199004,-32.4145184 -22.8748319,-31.7482087 C-21.8914487,-29.8464342 -19.4299714,-29.0197792 -17.3486022,-29.5199769 C-15.2667765,-30.0197777 -13.5798292,-31.6099628 -12.4858231,-33.4494419 Z M-6.59408194,60.4225479 C-7.22601403,60.3822546 -7.86869693,60.3159845 -8.50562923,60.2358697 C-10.8586994,59.939895 -12.5473909,57.3373481 -15.5480968,55.0681314 L-15.126779,56.0186335 C-13.9103781,58.7347548 -13.1219506,60.2324096 -12.7614967,60.5115979 L-12.3664424,60.8124971 C-11.4985291,61.4602184 -10.5508568,62.0530367 -9.48433312,62.0561473 C-8.33523061,62.0594076 -7.28213427,61.3459323 -6.59408194,60.4225479 Z M-21.603068,3.24875291 C-20.7826113,3.5074392 -19.9630411,3.80864305 -19.1411432,4.143134 C-18.1879326,4.53405583 -17.2345341,4.98285849 -16.2785096,5.46921582 C-16.3778309,4.62533406 -16.5856233,3.81862759 -16.8150766,3.2295733 C-17.3261487,1.91874001 -18.2245438,0.723332897 -19.4637884,0.0565099844 C-20.7021796,-0.610372611 -22.2963958,-0.680724113 -23.493972,0.0578637354 C-24.3429076,0.581665413 -24.8879513,1.46503059 -25.1244616,2.43703398 C-24.7553345,2.48455447 -24.3796748,2.54577 -24.0012934,2.62137593 C-23.2566798,2.76443161 -22.4245155,3.00042817 -21.603068,3.24875291 Z M6.48396449,64.0962464 C5.77061576,63.5907753 4.95429305,63.1152336 4.08283628,63.1881794 C3.2940511,63.2536289 2.60768028,63.7656341 2.09040061,64.3653072 C1.63855235,64.8887878 1.28888383,65.5059018 1.11165499,66.1727112 C2.3178453,65.9314091 3.51915657,65.5896699 4.69996593,65.1387224 C5.37002067,64.8778743 6.02907237,64.5761978 6.67491857,64.2389929 L6.48396449,64.0962464 L6.48396449,64.0962464 Z M-3.65129931,66.611265 C-3.70029528,66.4380073 -3.76090322,66.2642751 -3.83943497,66.0917962 C-4.41786919,64.8234116 -5.83097675,64.0190798 -7.22390115,64.0675943 C-8.45423991,64.1107435 -9.62074316,64.7785435 -10.3670048,65.7587461 C-10.0947397,65.8254763 -9.8267214,65.8989362 -9.55146009,65.9594531 C-7.6618483,66.3843872 -5.66474374,66.610969 -3.65129931,66.611265 Z M-34.157119,-6.86508919 C-34.240034,-7.26583555 -34.3791854,-7.68580707 -34.5668678,-8.1006696 L-34.7533401,-8.01987279 L-34.7533401,-8.01987279 C-36.2335371,-7.3121258 -37.6465667,-6.3736401 -38.8906968,-5.17850853 C-41.1016651,-3.06665742 -42.5216119,-0.436326331 -43.2823588,2.2010857 C-42.6947173,2.32552768 -42.0917241,2.37513496 -41.4933295,2.34058149 C-39.1350229,2.20697825 -36.9135702,0.870602092 -35.5338841,-1.04760531 C-34.336296,-2.71206872 -33.7434961,-4.85657351 -34.157119,-6.86508919 Z M5.39202377,56.6802645 C4.4940009,57.5814509 3.3590385,58.3752697 2.1025255,58.9640237 C0.831105834,59.554249 -0.574503115,59.9733142 -2.04232854,60.2140424 C-1.25770392,61.1991234 0.00846254063,61.7787238 1.27054246,61.7479357 C2.6229368,61.7146918 3.92978963,61.0117758 4.75321108,59.9391223 C5.45954532,59.0196056 5.66010738,57.791094 5.39202377,56.6802645 Z M-23.670088,27.5162107 C-24.018186,25.1445993 -25.4742842,22.9834085 -27.4769212,21.6658049 C-28.6565358,20.8888877 -30.0971269,20.3845245 -31.4828897,20.6581103 C-32.6267555,20.8830465 -33.6223441,21.6216619 -34.3525588,22.5308408 C-34.8270642,23.1228055 -35.1884553,23.7930582 -35.4366782,24.5055721 C-33.3013157,26.4026978 -31.0046317,27.957475 -28.7227464,29.3190205 C-27.2233027,30.1927918 -25.7035446,30.9952409 -24.17965,31.7219242 C-23.6095276,30.3938092 -23.4926205,28.7294378 -23.670088,27.5162107 Z M-31.1186917,13.0305211 C-31.4238783,12.5175219 -31.6996484,12.0020369 -31.9187882,11.4868803 C-32.1922361,10.8451526 -32.4162695,10.1373583 -32.5247178,9.56771742 C-32.7517697,8.35066722 -32.6972747,7.02644513 -32.3848041,5.90804032 L-32.3279404,5.75225316 C-32.926838,5.36871867 -33.5798388,5.14978403 -34.2529578,5.23802215 C-34.9482086,5.32866556 -35.5705237,5.72640741 -36.0793066,6.20841184 C-37.0333242,7.11222722 -37.6654694,8.35676616 -37.7962285,9.66359242 C-37.926928,10.9712722 -37.5463782,12.3289708 -36.726673,13.3557697 C-36.1936701,14.0235184 -35.4475447,14.5622916 -34.599402,14.6710906 C-33.7391311,14.7816146 -32.8748627,14.4402861 -32.1599648,13.9498726 C-31.8207158,13.7173028 -31.4599436,13.4000322 -31.1186917,13.0305211 Z M7.54821466,9.55560567 C8.2938707,11.2651565 10.0188707,12.561863 11.8839466,12.5991222 C13.2830961,12.6273644 14.6301923,11.9786706 15.6939761,11.0684662 L16.0026507,10.7957575 C16.5579874,10.2912712 17.2964521,9.54794271 17.8990332,8.73102753 C14.813078,8.05653788 11.5736594,6.70834403 8.31069875,4.98055386 L7.61535398,4.60376361 L7.61535398,4.60376361 C6.96150581,6.1757418 6.86987239,7.9991625 7.54821466,9.55560567 Z M37.4149034,19.7029074 C40.1075469,18.4017686 42.628605,16.8055757 44.9523768,14.9392836 C46.9697926,13.3221302 48.8406075,11.4973753 50.5161085,9.44912725 C50.6797751,9.25070647 50.8401261,9.04780026 51.0000205,8.84449713 C49.3256277,8.7437292 47.612778,8.96385288 46.2461502,9.36389622 C42.9051737,10.341136 40.007701,12.7484353 38.434493,15.8547794 C37.8297321,17.0493729 37.415803,18.3665658 37.4149034,19.7029074 Z M17.5183404,21.1147951 C17.3683051,21.6553381 17.2893323,22.2063503 17.2657394,22.7582072 C19.1730217,23.0862735 21.1402653,23.2660551 23.1813565,23.244691 C25.3889249,23.2245511 27.5257659,22.9288927 29.5902884,22.4637517 C27.7993326,20.0643815 24.991313,18.4154206 22.0014127,18.1394719 C21.0337003,18.050184 20.0030094,18.1089627 19.1773754,18.6225581 C18.3093669,19.1618453 17.7917488,20.130777 17.5183404,21.1147951 Z M15.3247002,45.8774164 C15.2901034,45.7567574 15.2644386,45.6350449 15.2260309,45.5150811 C14.452119,42.9905579 12.978637,40.8567422 11.3454568,39.1620802 C10.7694186,39.859779 10.402482,40.7328339 10.3688816,41.6383295 C10.309208,43.2257952 11.2530799,44.8078417 12.6786562,45.5083791 C13.3635142,45.8455913 14.3951743,46.0153187 15.3247002,45.8774164 Z M0.439292833,41.7468727 L0.650427005,41.847039 L0.650427005,41.847039 C2.36120513,42.7073189 3.91564061,43.6377118 5.15450801,44.6793709 C5.84956859,45.2667436 6.4193415,45.8654503 6.87274088,46.4864464 C7.06974918,46.0043724 7.20043414,45.4814786 7.23414978,44.9271984 C7.31453065,43.6174623 6.69696328,42.286201 5.64628908,41.5011251 C4.60867722,40.7249992 3.18921118,40.5043401 1.95229686,40.8888804 C1.39322618,41.0626315 0.878955677,41.3619032 0.439292833,41.7468727 Z M-9.60156115,27.403855 C-10.6851743,26.938856 -11.7596763,26.4753641 -12.8143893,26.0066289 C-14.6976342,25.1759917 -16.527606,24.3283351 -18.2768399,23.4209984 C-18.5978505,23.258185 -18.9119345,23.0901699 -19.2264153,22.9226113 C-19.8080582,24.5765958 -19.6010991,26.5120786 -18.5611824,27.9283078 C-17.296661,29.6496066 -14.8738156,30.4450842 -12.8580023,29.7371928 C-11.9040731,29.4024599 -10.6373467,28.5059392 -9.60156115,27.403855 Z M10.6193035,58.5460141 C10.9163277,59.1569317 11.3567365,59.7209423 11.9096428,60.1029756 C13.4025325,58.3256611 14.5553572,56.2663604 15.2197901,53.9748991 C15.4448996,53.2078228 15.6076371,52.4073697 15.715111,51.5893388 C15.5206773,51.4090973 15.3049295,51.2552192 15.0589594,51.1536293 C14.2190363,50.8066757 13.2391406,51.119638 12.4838321,51.6270292 C10.3206955,53.0798327 9.48110437,56.2026348 10.6193035,58.5460141 Z M-4.76825601,39.3844283 L-3.97672658,39.7261889 L-3.97672658,39.7261889 C-3.82860405,39.1398934 -3.7708794,38.5303288 -3.82976995,37.9211996 C-4.01928566,35.9591952 -5.3441825,34.1533475 -7.14961146,33.3622976 C-8.00254014,32.9888075 -9.02609791,32.8429576 -9.84890552,33.2804499 C-10.4951278,33.6245426 -10.9171034,34.2685838 -11.3023808,34.8916185 C-11.6286013,35.4208951 -11.9490412,35.9776424 -12.2034591,36.5525017 C-9.66201135,37.4863507 -7.17128201,38.4001598 -4.76825601,39.3844283 Z M7.21580211,35.7477838 C6.41719452,35.2066767 5.61440576,34.7100329 4.8202565,34.2449483 C3.14243155,33.2794415 1.442785,32.394368 -0.258837344,31.5668978 C-0.48610721,32.2294872 -0.633281052,32.9152083 -0.621736993,33.613846 C-0.602485773,34.7232064 -0.168080253,35.8575708 0.693018432,36.5564112 C1.79692652,37.4526949 3.40838625,37.4875331 4.74669605,37.0075607 C5.34371245,36.7938467 6.37975858,36.3332952 7.21580211,35.7477838 Z M-22.7507246,-55.2219577 C-23.3596225,-54.7059353 -23.7780472,-53.9497852 -23.8217879,-53.152507 C-23.8443507,-52.7392388 -23.7679057,-52.3328939 -23.6329472,-51.9422194 C-21.9469443,-53.104352 -20.0508402,-54.0461696 -18.0370023,-54.8191073 C-18.2152459,-55.0437941 -18.4115477,-55.2384857 -18.6197123,-55.3881767 C-19.8252843,-56.2541938 -21.6184087,-56.1824118 -22.7507246,-55.2219577 Z M41.3481844,-3.68855466 C40.7689121,-2.35636913 39.9605547,-1.04375848 39.0002988,0.200137771 L38.8664605,0.365167112 L38.8664605,0.365167112 C41.0889149,1.21411119 43.8329372,0.592528524 45.3695682,-1.2277271 C46.1842333,-2.1925573 46.656643,-3.48296274 46.4791697,-4.73307005 C46.2842684,-6.10975427 45.3549735,-7.26869312 44.3339491,-8.21237046 L44.0255964,-8.49283 C43.632803,-8.84474859 43.1296428,-9.27493433 42.5718009,-9.69688614 C42.6345636,-7.70157422 42.2655791,-5.72324446 41.3481844,-3.68855466 Z M21.4025041,-27.6205003 C21.9057762,-27.5557718 22.4106001,-27.4688519 22.915227,-27.3724837 C22.9879342,-28.3810634 22.8570453,-29.3942754 22.4702597,-30.2708036 C21.4649431,-32.5475695 19.1092113,-34.0759178 16.6419965,-34.408143 C14.1751786,-34.7408248 11.6418994,-33.9817391 9.54275895,-32.6440524 C7.90634086,-31.6007462 6.43135195,-30.0948554 6.02801529,-28.1968905 C5.87604257,-27.4816724 5.91015991,-26.7545941 6.06628816,-26.0489129 C7.76418114,-26.4583975 9.41779568,-26.8326226 11.0248964,-27.1238301 C12.9001352,-27.4625202 14.7083578,-27.7047514 16.4452847,-27.8013362 C18.2178204,-27.9038417 19.7499479,-27.8321505 21.4025041,-27.6205003 Z M35.1894779,-22.032697 C36.3182277,-21.1981887 37.3366678,-20.2792036 38.2438584,-19.319847 C39.2879984,-20.8114771 39.9763227,-22.7735413 39.9501222,-24.2705198 C39.9079377,-26.676817 38.1994741,-28.9635946 35.9039543,-29.6860666 C33.6079779,-30.4089354 30.8981401,-29.5131386 29.4853698,-27.5651717 C29.074696,-26.9986839 28.7860687,-26.3549616 28.6123941,-25.6802527 C29.4184901,-25.3570933 30.2092674,-25.001557 30.9776205,-24.6110029 C32.4665268,-23.8449924 33.8943499,-22.9958032 35.1894779,-22.032697 Z M1.92974588,-33.2168303 C2.86840079,-33.4318767 3.57494443,-34.1563754 4.19582419,-34.9128714 L4.94164329,-35.8510128 C5.89508527,-37.0661938 6.95713923,-38.5033969 7.50974342,-40.0259624 C3.99105675,-39.038869 0.739233171,-37.8783142 -2.36131502,-36.8235411 C-2.16677061,-35.8199265 -1.70619497,-34.8816585 -0.965898504,-34.1747996 C-0.199456508,-33.4436095 0.897356276,-32.9799624 1.92974588,-33.2168303 Z M22.7201237,-41.9129567 C22.5011225,-41.9293772 22.2755141,-41.9298972 22.0530601,-41.9405012 C22.1798174,-41.4463306 22.3874587,-40.9668217 22.6476748,-40.5265833 C24.0928615,-38.0798769 26.9430051,-36.5337823 29.781927,-36.6568225 C31.6807083,-36.7385657 33.8427806,-37.6423742 35.2201166,-39.109702 C31.2319662,-40.659844 27.0509524,-41.6257081 22.7201237,-41.9129567 Z M46.5903152,-20.572914 C46.696064,-19.5021942 47.1167808,-18.4470665 47.8611178,-17.6701597 C48.6054548,-16.8932529 49.6866476,-16.4199366 50.7591967,-16.5056576 C51.7762673,-16.5874993 52.6954449,-17.1432299 53.4936474,-17.7792719 C54.1984704,-18.3401692 55.06374,-19.1271368 55.7929639,-20.0259542 C55.4855728,-20.7973924 55.1492635,-21.5530853 54.778936,-22.2862438 C53.6480002,-24.5134854 52.2603231,-26.5486632 50.7129902,-28.3771237 C49.5904211,-27.412205 48.5400005,-26.3476934 47.7647633,-25.08886 C46.9344382,-23.7408346 46.4346643,-22.1487535 46.5903152,-20.572914 Z M53.4496731,-0.18157525 C54.1253691,0.208596615 54.9328052,0.471195301 55.780715,0.613460467 C56.5388184,-1.29516034 57.119033,-3.31913753 57.4466105,-5.42965777 C57.6629928,-6.78149621 57.7679228,-8.12039501 57.7782708,-9.45653959 C57.0453179,-9.91732656 56.227774,-10.207951 55.3489762,-10.2399875 C53.0160817,-10.3255853 50.8549699,-8.37160444 50.4895506,-6.06631583 C50.1241314,-3.76102722 51.4275481,-1.34857829 53.4496731,-0.18157525 Z" id="Shape" fill="#F7CD5D" mask="url(#mask-4)"></path>
            <path d="M-28.9800199,1.24985698 C-28.3763207,0.745348121 -27.5211484,0.372063503 -26.3080974,0.210475595 C-25.5316253,0.103860384 -24.6342351,0.0951431175 -23.6840495,0.185227823 C-23.8963544,0.338161471 -24.0872976,0.514474332 -24.2567806,0.709442231 C-24.6790989,1.19526388 -24.9685468,1.79658801 -25.1244616,2.43703398 L-24.8963076,2.46782392 C-25.9689584,2.31563882 -26.9983194,2.28342549 -27.8918929,2.37164324 L-28.2599765,2.41528008 L-28.2599765,2.41528008 C-29.0572104,2.52549132 -29.6987707,2.72773943 -30.2145542,2.99924201 C-29.9869266,2.4644232 -29.704561,2.01326096 -29.3961575,1.65848331 C-29.261603,1.50369615 -29.1219246,1.36699098 -28.9800199,1.24985698 Z M-17.2288033,1.94323859 C-13.9390662,3.2934888 -10.6500443,5.26518434 -7.24829657,7.49359423 C-5.12444881,8.87648313 -2.95830466,10.367485 -0.659388225,11.8560641 C-1.43124121,12.1759208 -2.12118427,12.6920353 -2.67686627,13.3312744 C-2.79752865,13.4700805 -2.91140172,13.613987 -3.0188824,13.7634502 C-2.43979948,14.1408226 -1.85321185,14.5185622 -1.25719138,14.8948051 L-1.3420812,14.8426254 C-4.10507073,13.0968064 -6.66197339,11.3202336 -9.16063647,9.69348964 C-11.5763618,8.11058486 -13.9358331,6.65754583 -16.2788677,5.46409473 C-16.3784665,4.6223766 -16.5861396,3.81737716 -16.8150766,3.2295733 C-17.0094018,2.7319795 -17.2591638,2.25112755 -17.5619572,1.80914914 L-17.2288033,1.94323859 L-17.2288033,1.94323859 Z M11.2443706,21.1825635 C11.2790182,20.3717693 11.1201896,19.5354795 10.8374276,18.8648129 C10.695411,18.5265221 10.5253895,18.2047704 10.333099,17.8957258 C12.4696943,18.8047081 14.7293156,19.5841535 17.1382101,20.1494597 C17.3605118,20.2008145 17.5840041,20.2507996 17.8086276,20.2985613 C17.6907641,20.563252 17.5950741,20.8383998 17.5183404,21.1147951 C17.3683051,21.6553381 17.2893323,22.2063503 17.2657394,22.7582072 C18.4103122,22.9550435 19.5762767,23.0984535 20.7669167,23.177005 L21.6037354,23.2218291 C19.3981334,23.135907 17.2775472,22.824853 15.2258702,22.3493551 C10.8062512,21.3117911 6.88535437,19.5526148 3.31241119,17.5982042 L2.13411049,16.9402252 C4.93261328,18.5328153 7.94555451,20.0336473 11.2443706,21.1825635 Z M29.5902884,22.4637517 C29.1535683,21.8788987 28.6564931,21.3385774 28.1112718,20.8517977 C29.8272013,20.6511855 31.496958,20.3054219 33.1198551,19.8660162 C34.6436461,19.438258 36.1241707,18.9191796 37.5571822,18.3155105 C37.4656696,18.7730539 37.4153257,19.2367241 37.4149034,19.7029074 C39.6491137,18.6235889 41.7654359,17.3404744 43.7485717,15.8690275 L44.9223485,14.9636833 C40.899663,18.187706 36.301738,20.6367206 31.2079122,22.065455 C29.0636866,22.6461185 26.8368226,23.0636872 24.5314498,23.1988819 L23.2662126,23.2439035 C25.4437081,23.2168607 27.5519264,22.9227749 29.5902884,22.4637517 Z" id="Shape" fill="#67915E" mask="url(#mask-4)"></path>
            <path d="M-23.6840495,0.185227823 C-23.1647218,0.234252891 -22.6291325,0.313446477 -22.0889535,0.421480523 C-21.3447368,0.564992798 -20.5125725,0.800989358 -19.6907281,1.0488575 C-18.9820489,1.27290445 -18.2724715,1.52819423 -17.5619572,1.80914914 C-17.2591638,2.25112755 -17.0094018,2.7319795 -16.8150766,3.2295733 C-16.5861396,3.81737716 -16.3784665,4.6223766 -16.2788677,5.46409473 C-16.9842137,5.10526482 -17.6881715,4.76973665 -18.391737,4.46137915 L-19.1411432,4.143134 L-19.1411432,4.143134 C-19.9630411,3.80864305 -20.7826113,3.5074392 -21.603068,3.24875291 C-22.4245155,3.00042817 -23.2566798,2.76443161 -24.0012934,2.62137593 C-24.3018229,2.56133944 -24.6004455,2.51017533 -24.8963076,2.46782392 L-25.1244616,2.43703398 L-25.1244616,2.43703398 C-24.9685468,1.79658801 -24.6790989,1.19526388 -24.2567806,0.709442231 C-24.0872976,0.514474332 -23.8963544,0.338161471 -23.6840495,0.185227823 Z M-0.659388225,11.8560641 C0.732178215,12.7571057 2.17211746,13.656909 3.68061253,14.5313338 C5.7695563,15.7339758 7.97600174,16.8936649 10.333099,17.8957258 C10.5253895,18.2047704 10.695411,18.5265221 10.8374276,18.8648129 C11.1201896,19.5354795 11.2790182,20.3717693 11.2443706,21.1825635 C7.94555451,20.0336473 4.93261328,18.5328153 2.13411049,16.9402252 L1.49507977,16.5715047 L1.49507977,16.5715047 C-0.0765633192,15.6526073 -1.57117511,14.7068812 -3.0188824,13.7634502 C-2.91140172,13.613987 -2.79752865,13.4700805 -2.67686627,13.3312744 C-2.12118427,12.6920353 -1.43124121,12.1759208 -0.659388225,11.8560641 Z M25.0936964,21.0447956 C26.1141331,21.0356222 27.1206064,20.9678158 28.1112718,20.8517977 C28.6564931,21.3385774 29.1535683,21.8788987 29.5902884,22.4637517 C27.7784111,22.8717724 25.9113386,23.149472 23.9894778,23.2251388 L22.9374274,23.245881 L22.9374274,23.245881 C20.9831351,23.2513121 19.0970559,23.0731452 17.2657394,22.7582072 C17.2893323,22.2063503 17.3683051,21.6553381 17.5183404,21.1147951 C17.5950741,20.8383998 17.6907641,20.563252 17.8086276,20.2985613 C20.1392646,20.7934344 22.5602018,21.0710017 25.0936964,21.0447956 Z M46.8643198,12.7398448 C48.2567373,11.6231147 49.5731745,10.4010558 50.8099605,9.08250181 L50.5161085,9.44912725 L50.5161085,9.44912725 C50.2885594,9.72749171 50.0576947,10.0013707 49.8231175,10.2712209 C48.4958313,11.798089 47.0570934,13.1945038 45.5293913,14.4676275 L44.9259804,14.9604274 L44.9259804,14.9604274 C42.6072492,16.8190767 40.0959558,18.4077252 37.4149034,19.7029074 C37.4153257,19.2367241 37.4656696,18.7730539 37.5571822,18.3155105 C40.9256397,16.8972126 44.0370327,15.0101522 46.8643198,12.7398448 Z" id="Shape" fill="#D9B754" mask="url(#mask-4)"></path>
        </g>
        <circle id="Oval" stroke="#2D2D2D" stroke-width="5" fill="#FFFFFF" cx="121.5" cy="13.5" r="10.5"></circle>
    </g>
</svg>