<?xml version="1.0" encoding="utf-8"?>
<svg xmlns="http://www.w3.org/2000/svg" viewBox="0 0 30 30" fill="#ffffff"><path d="M16,3h-3c-2.209,0-4,1.791-4,4v1h5c0.552,0,1,0.448,1,1c0,0.552-0.448,1-1,1H9H8H7c-2.209,0-4,1.791-4,4v4c0,2.209,1.791,4,4,4h1v-5c0-1.654,1.346-3,3-3h8c0.552,0,1-0.448,1-1V7C20,4.791,18.209,3,16,3z M12,7c-0.552,0-1-0.448-1-1c0-0.552,0.448-1,1-1s1,0.448,1,1C13,6.552,12.552,7,12,7z" fill="#ffffff"/><path d="M23,8h-1v5c0,1.654-1.346,3-3,3h-8c-0.552,0-1,0.448-1,1v6c0,2.209,1.791,4,4,4h3c2.209,0,4-1.791,4-4v-1h-5c-0.552,0-1-0.448-1-1c0-0.552,0.448-1,1-1h5h1h1c2.209,0,4-1.791,4-4v-4C27,9.791,25.209,8,23,8z M18,23c0.552,0,1,0.448,1,1c0,0.552-0.448,1-1,1s-1-0.448-1-1C17,23.448,17.448,23,18,23z" fill="#ffffff"/></svg>
