<?xml version="1.0" encoding="iso-8859-1"?>
<!-- Generator: Adobe Illustrator 21.1.0, SVG Export Plug-In . SVG Version: 6.00 Build 0)  -->
<svg version="1.1" id="Layer_1" xmlns="http://www.w3.org/2000/svg" xmlns:xlink="http://www.w3.org/1999/xlink" x="0px" y="0px"
	 viewBox="0 0 64 64" style="enable-background:new 0 0 64 64;" xml:space="preserve">
<g>
	<path d="M45,31h-2c-0.552,0-1,0.447-1,1s0.448,1,1,1h2c0.552,0,1-0.447,1-1S45.552,31,45,31z"/>
	<path d="M32,42c-0.552,0-1,0.447-1,1v2c0,0.553,0.448,1,1,1s1-0.447,1-1v-2C33,42.447,32.552,42,32,42z"/>
	<path d="M40.485,39.071c-0.391-0.391-1.023-0.391-1.414,0s-0.391,1.023,0,1.414l1.414,1.414c0.195,0.195,0.451,0.293,0.707,0.293
		s0.512-0.098,0.707-0.293c0.391-0.391,0.391-1.023,0-1.414L40.485,39.071z"/>
	<path d="M39.778,25.222c0.256,0,0.512-0.098,0.707-0.293l1.414-1.414c0.391-0.391,0.391-1.023,0-1.414s-1.023-0.391-1.414,0
		l-1.414,1.414c-0.391,0.391-0.391,1.023,0,1.414C39.267,25.124,39.522,25.222,39.778,25.222z"/>
	<path d="M44.428,35.943l-1.854-0.749c-0.511-0.208-1.095,0.041-1.302,0.552c-0.207,0.513,0.041,1.096,0.553,1.302l1.854,0.749
		c0.123,0.05,0.25,0.073,0.374,0.073c0.396,0,0.771-0.236,0.928-0.625C45.187,36.732,44.94,36.149,44.428,35.943z"/>
	<path d="M37.218,41.735c-0.216-0.509-0.801-0.744-1.312-0.53c-0.508,0.217-0.745,0.804-0.529,1.312l0.782,1.841
		c0.162,0.381,0.532,0.609,0.921,0.609c0.13,0,0.263-0.025,0.391-0.079c0.508-0.217,0.745-0.804,0.529-1.312L37.218,41.735z"/>
	<path d="M41.205,28.093c0.162,0.381,0.532,0.609,0.921,0.609c0.13,0,0.263-0.025,0.39-0.079l1.841-0.781
		c0.508-0.216,0.746-0.803,0.53-1.312s-0.803-0.745-1.311-0.53l-1.841,0.781C41.227,26.997,40.989,27.584,41.205,28.093z"/>
	<path d="M59.728,26.651l-6.893-1.731c-0.302-0.882-0.674-1.77-1.11-2.638l3.664-6.106c0.709-1.183,0.524-2.689-0.451-3.665
		l-3.449-3.448c-0.976-0.975-2.481-1.16-3.665-0.451l-6.107,3.658c-0.874-0.434-1.762-0.805-2.644-1.1l-1.724-6.898
		C37.014,2.935,35.817,2,34.438,2h-4.877c-1.379,0-2.576,0.935-2.911,2.272l-1.729,6.893c-0.877,0.3-1.765,0.671-2.639,1.11
		l-6.107-3.664c-1.182-0.709-2.688-0.523-3.664,0.451l-3.449,3.448c-0.975,0.976-1.16,2.482-0.451,3.665l3.659,6.106
		c-0.431,0.868-0.803,1.756-1.101,2.646l-6.896,1.724C2.935,26.985,2,28.183,2,29.562v4.877c0,1.379,0.935,2.576,2.272,2.91
		l6.893,1.731c0.302,0.882,0.674,1.77,1.11,2.638l-3.664,6.106c-0.709,1.183-0.524,2.689,0.451,3.665l3.449,3.448
		c0.976,0.975,2.482,1.161,3.665,0.451l6.107-3.658c0.874,0.434,1.762,0.805,2.644,1.1l1.724,6.898
		C26.986,61.065,28.183,62,29.562,62h4.877c1.379,0,2.576-0.935,2.911-2.272l1.729-6.893c0.877-0.3,1.765-0.671,2.639-1.11
		l6.107,3.664c1.183,0.71,2.689,0.523,3.664-0.451l3.449-3.448c0.975-0.976,1.16-2.482,0.451-3.665l-3.659-6.106
		c0.431-0.868,0.803-1.756,1.101-2.646l6.896-1.724C61.065,37.015,62,35.817,62,34.438v-4.877
		C62,28.183,61.065,26.985,59.728,26.651z M60,34.438c0,0.46-0.312,0.858-0.758,0.971l-6.897,1.724
		c-0.656,0.164-1.18,0.65-1.402,1.299c-0.273,0.801-0.611,1.606-1.003,2.396c-0.307,0.617-0.28,1.334,0.071,1.919l3.664,6.106
		c0.236,0.394,0.174,0.896-0.15,1.222l-3.449,3.448c-0.326,0.324-0.829,0.385-1.221,0.15l-6.106-3.664
		c-0.584-0.351-1.302-0.378-1.918-0.07c-0.795,0.394-1.602,0.731-2.397,1.003c-0.649,0.223-1.135,0.747-1.299,1.403l-1.724,6.896
		C35.297,59.688,34.898,60,34.438,60h-4.877c-0.459,0-0.859-0.312-0.97-0.757l-1.724-6.897c-0.164-0.656-0.649-1.181-1.299-1.403
		c-0.795-0.271-1.601-0.609-2.396-1.003c-0.286-0.143-0.593-0.213-0.899-0.213c-0.354,0-0.706,0.095-1.02,0.283l-6.106,3.664
		c-0.394,0.235-0.896,0.174-1.222-0.15l-3.448-3.448c-0.325-0.325-0.387-0.828-0.151-1.222l3.664-6.106
		c0.351-0.585,0.377-1.302,0.071-1.918c-0.392-0.791-0.73-1.597-1.003-2.397c-0.222-0.648-0.747-1.135-1.403-1.299l-6.896-1.724
		C4.312,35.297,4,34.898,4,34.438v-4.877c0-0.46,0.312-0.858,0.758-0.971l6.897-1.724c0.656-0.164,1.18-0.65,1.402-1.299
		c0.273-0.801,0.611-1.606,1.003-2.396c0.307-0.617,0.28-1.334-0.071-1.919l-3.664-6.106c-0.236-0.394-0.174-0.896,0.15-1.222
		l3.449-3.448c0.324-0.324,0.827-0.386,1.221-0.15l6.106,3.664c0.584,0.351,1.302,0.378,1.918,0.07
		c0.795-0.394,1.602-0.731,2.397-1.003c0.649-0.223,1.135-0.747,1.299-1.403l1.724-6.896C28.703,4.312,29.102,4,29.562,4h4.877
		c0.459,0,0.859,0.312,0.97,0.757l1.724,6.897c0.164,0.656,0.649,1.181,1.299,1.403c0.795,0.271,1.601,0.609,2.396,1.003
		c0.616,0.309,1.334,0.281,1.919-0.07l6.106-3.664c0.395-0.235,0.897-0.174,1.222,0.15l3.448,3.448
		c0.325,0.325,0.387,0.828,0.151,1.222l-3.664,6.106c-0.351,0.585-0.377,1.302-0.071,1.918c0.392,0.791,0.73,1.597,1.003,2.397
		c0.222,0.648,0.747,1.135,1.403,1.299l6.896,1.724C59.688,28.703,60,29.102,60,29.562V34.438z"/>
	<path d="M32,24c-4.411,0-8,3.589-8,8s3.589,8,8,8s8-3.589,8-8S36.411,24,32,24z M32,38c-3.309,0-6-2.691-6-6s2.691-6,6-6
		s6,2.691,6,6S35.309,38,32,38z"/>
	<path d="M26.386,42.608C22.447,40.521,20,36.455,20,32c0-5.54,3.752-10.332,9.124-11.653c0.536-0.132,0.864-0.673,0.732-1.21
		c-0.132-0.536-0.673-0.868-1.21-0.731C22.378,19.946,18,25.537,18,32c0,5.197,2.854,9.939,7.45,12.376
		c0.149,0.079,0.31,0.116,0.467,0.116c0.358,0,0.705-0.193,0.884-0.531C27.06,43.473,26.875,42.867,26.386,42.608z"/>
	<path d="M33.611,20.107c0.716,0.096,1.428,0.258,2.117,0.482c0.103,0.033,0.207,0.049,0.31,0.049c0.421,0,0.813-0.269,0.951-0.69
		c0.171-0.525-0.116-1.09-0.641-1.261c-0.804-0.262-1.635-0.451-2.471-0.562c-0.539-0.069-1.05,0.312-1.124,0.858
		C32.679,19.531,33.063,20.034,33.611,20.107z"/>
	<circle cx="32" cy="32" r="2"/>
</g>
</svg>
